<?xml version="1.0" encoding="utf-8"?>
<!-- Generator: Adobe Illustrator 22.0.1, SVG Export Plug-In . SVG Version: 6.00 Build 0)  -->
<svg version="1.1" id="Layer_1" xmlns="http://www.w3.org/2000/svg" xmlns:xlink="http://www.w3.org/1999/xlink" x="0px" y="0px"
	 viewBox="0 0 200 200" style="enable-background:new 0 0 200 200;" xml:space="preserve">
<style type="text/css">
	.st0{fill:#7AC943;}
	.st1{fill:#467229;}
	.st2{fill:#D8EAF9;}
	.st3{fill:#FFFFFF;}
	.st4{fill:#1BA9E3;}
	.st5{fill:#CE3028;}
	.st6{fill:#F3AD89;}
	.st7{fill:#7854FC;}
	.st8{fill:#49BAE9;}
	.st9{fill:#3F3D56;}
	.st10{fill:none;stroke:#3F3D56;stroke-width:2;stroke-miterlimit:10;}
	.st11{opacity:0.15;fill:#3F3D56;}
	.st12{opacity:0.26;fill:#FFFFFF;}
	.st13{fill:none;stroke:#3F3D56;stroke-width:2;stroke-linecap:round;stroke-miterlimit:10;}
	.st14{fill:none;stroke:#1BA9E3;stroke-width:3.5;stroke-linecap:round;stroke-miterlimit:10;}
	.st15{opacity:0.5;fill:#1BA9E3;}
	.st16{opacity:0.34;fill:#FFFFFF;}
	.st17{opacity:0.64;fill:#FFFFFF;}
	.st18{opacity:0.56;fill:#FFFFFF;}
	.st19{opacity:0.7;fill:#FFFFFF;}
	.st20{opacity:0.65;fill:#FFFFFF;}
	.st21{fill:none;stroke:#FFFFFF;stroke-width:1.5;stroke-linecap:round;stroke-miterlimit:10;}
	.st22{fill:none;stroke:#3F3D56;stroke-width:2;stroke-linecap:round;stroke-linejoin:round;stroke-miterlimit:10;}
	.st23{fill:#F19377;}
	.st24{fill:#E9EDF2;}
	.st25{opacity:0.4;fill:#50719B;}
	.st26{fill:#50719B;}
	.st27{opacity:0.15;}
	.st28{opacity:0.13;}
	.st29{fill:none;stroke:#FFFFFF;stroke-width:2;stroke-linecap:round;stroke-miterlimit:10;}
	.st30{fill:#0F2F56;}
	.st31{fill:none;stroke:#3F3D56;stroke-linecap:round;stroke-miterlimit:10;}
	.st32{fill:none;stroke:#1BA9E3;stroke-width:2;stroke-linecap:round;stroke-miterlimit:10;}
	.st33{fill:#FAC1B6;}
	.st34{fill:#F3B9B0;}
	.st35{fill:#FBB3A8;}
	.st36{fill:#F7D5C4;}
	.st37{opacity:0.3;clip-path:url(#SVGID_2_);fill:#81AB4B;}
	.st38{clip-path:url(#SVGID_4_);}
	.st39{opacity:0.3;fill:#95BD63;}
	.st40{opacity:0.3;clip-path:url(#SVGID_6_);fill:#81AB4B;}
	.st41{opacity:0.3;clip-path:url(#SVGID_8_);fill:#81AB4B;}
	.st42{fill:#7FB553;}
	.st43{fill:#6DA032;}
	.st44{fill:#CBD65E;}
	.st45{fill:#96BB51;}
	.st46{fill:#ABC557;}
	.st47{opacity:0.5;fill:#FFFFFF;}
	.st48{fill:#85A343;}
	.st49{fill:#B1A393;}
	.st50{fill:#EDD5BF;}
	.st51{fill:#E05B36;}
	.st52{fill:#EE762C;}
	.st53{fill:#E1A978;}
	.st54{fill:#604C47;}
	.st55{fill:#A17F65;}
	.st56{fill:#6CAF51;}
	.st57{fill:#297602;}
	.st58{fill:#297000;}
	.st59{fill:#388409;}
	.st60{fill:#F04E41;}
	.st61{fill:#F04E40;}
	.st62{fill:#F3735C;}
	.st63{fill:#417602;}
	.st64{fill:#417000;}
	.st65{fill:#528409;}
	.st66{fill:#FF4F77;}
	.st67{fill:#FF6086;}
	.st68{fill:#FF7596;}
	.st69{fill:#FF3D6B;}
	.st70{fill:#EE292E;}
	.st71{fill:#7EA61F;}
	.st72{fill:#68990A;}
	.st73{fill:#56860C;}
	.st74{fill:#FFDD60;}
	.st75{fill:#FFCB4E;}
	.st76{fill:#ECAE01;}
	.st77{fill:#F68E21;}
	.st78{fill:#FDD152;}
	.st79{fill:none;}
	.st80{fill:#E0E69E;}
	.st81{opacity:0.23;}
	.st82{fill:#A4DDF4;}
	.st83{opacity:0.25;fill:#FFFFFF;}
	.st84{opacity:0.44;fill:#FFFFFF;}
</style>
<circle class="st2" cx="111" cy="100" r="74.2"/>
<path class="st15" d="M110.6,140.7c-26.2,0-47.3,3.7-47.3,8.4c0,4.6,21.2,8.4,47.3,8.4c26.1,0,47.3-3.7,47.3-8.4
	C157.9,144.5,136.7,140.7,110.6,140.7z M110.6,154.3c-21.6,0-39.1-2.3-39.1-5.2c0-2.9,17.5-5.2,39.1-5.2c21.6,0,39.1,2.3,39.1,5.2
	C149.6,152,132.1,154.3,110.6,154.3z"/>
<path class="st15" d="M110.6,145.7c-10.5,0-18.9,1.5-18.9,3.3c0,1.8,8.5,3.3,18.9,3.3c10.4,0,18.9-1.5,18.9-3.3
	C129.5,147.2,121,145.7,110.6,145.7z M110.6,151.2c-8.6,0-15.6-0.9-15.6-2.1c0-1.2,7-2.1,15.6-2.1c8.6,0,15.6,0.9,15.6,2.1
	C126.2,150.2,119.2,151.2,110.6,151.2z"/>
<path class="st15" d="M110.6,141.5c-4.1,0-7.5,0.4-7.5,1c0,0.5,3.3,1,7.5,1c4.1,0,7.5-0.4,7.5-1C118,142,114.7,141.5,110.6,141.5z"
	/>
<path class="st15" d="M110.6,149.8c-2.8,0-5.1-0.3-5.1-0.7c0-0.4,2.3-0.7,5.1-0.7c2.8,0,5.1,0.3,5.1,0.7
	C115.6,149.5,113.4,149.8,110.6,149.8z"/>
<g>
	<path class="st4" d="M140.4,113.2c0,16.8-13.6,30.5-30.5,30.5s-30.5-13.6-30.5-30.5s30.5-63.5,30.5-63.5S140.4,96.4,140.4,113.2z"
		/>
	<path class="st13" d="M140.4,113.2c0,16.8-13.6,30.5-30.5,30.5s-30.5-13.6-30.5-30.5s30.5-63.5,30.5-63.5S140.4,96.4,140.4,113.2z"
		/>
	<path class="st12" d="M118.1,82.3c1.9,6.1,5.7,11.3,8.9,16.8c6.8,11.6,9,28.8-5.2,36.1c-6.6,3.4-15.1,2.7-21-1.8
		c-4.2-3.2-7.1-8.6-5.7-13.6c3,6.4,11.1,10.1,18,8.8c6.9-1.4,12.5-7.8,12.9-14.8c0.3-5.8-2.5-11.2-4.9-16.5
		C118.7,92,116.4,87.8,118.1,82.3z"/>
</g>
</svg>
