<?xml version="1.0" encoding="utf-8"?>
<!-- Generator: Adobe Illustrator 22.0.1, SVG Export Plug-In . SVG Version: 6.00 Build 0)  -->
<svg version="1.1" id="Layer_1" xmlns="http://www.w3.org/2000/svg" xmlns:xlink="http://www.w3.org/1999/xlink" x="0px" y="0px"
	 viewBox="0 0 200 200" style="enable-background:new 0 0 200 200;" xml:space="preserve">
<style type="text/css">
	.st0{fill:#7AC943;}
	.st1{fill:#467229;}
	.st2{fill:#D8EAF9;}
	.st3{fill:#FFFFFF;}
	.st4{fill:#1BA9E3;}
	.st5{fill:#CE3028;}
	.st6{fill:#F3AD89;}
	.st7{fill:#7854FC;}
	.st8{fill:#49BAE9;}
	.st9{fill:#3F3D56;}
	.st10{fill:none;stroke:#3F3D56;stroke-width:2;stroke-miterlimit:10;}
	.st11{opacity:0.15;fill:#3F3D56;}
	.st12{opacity:0.26;fill:#FFFFFF;}
	.st13{fill:none;stroke:#3F3D56;stroke-width:2;stroke-linecap:round;stroke-miterlimit:10;}
	.st14{fill:none;stroke:#1BA9E3;stroke-width:3.5;stroke-linecap:round;stroke-miterlimit:10;}
	.st15{opacity:0.5;fill:#1BA9E3;}
	.st16{opacity:0.34;fill:#FFFFFF;}
	.st17{opacity:0.64;fill:#FFFFFF;}
	.st18{opacity:0.56;fill:#FFFFFF;}
	.st19{opacity:0.7;fill:#FFFFFF;}
	.st20{opacity:0.65;fill:#FFFFFF;}
	.st21{fill:none;stroke:#FFFFFF;stroke-width:1.5;stroke-linecap:round;stroke-miterlimit:10;}
	.st22{fill:none;stroke:#3F3D56;stroke-width:2;stroke-linecap:round;stroke-linejoin:round;stroke-miterlimit:10;}
	.st23{fill:#F19377;}
	.st24{fill:#E9EDF2;}
	.st25{opacity:0.4;fill:#50719B;}
	.st26{fill:#50719B;}
	.st27{opacity:0.15;}
	.st28{opacity:0.13;}
	.st29{fill:none;stroke:#FFFFFF;stroke-width:2;stroke-linecap:round;stroke-miterlimit:10;}
	.st30{fill:#0F2F56;}
	.st31{fill:none;stroke:#3F3D56;stroke-linecap:round;stroke-miterlimit:10;}
	.st32{fill:none;stroke:#1BA9E3;stroke-width:2;stroke-linecap:round;stroke-miterlimit:10;}
	.st33{fill:#FAC1B6;}
	.st34{fill:#F3B9B0;}
	.st35{fill:#FBB3A8;}
	.st36{fill:#F7D5C4;}
	.st37{opacity:0.3;clip-path:url(#SVGID_2_);fill:#81AB4B;}
	.st38{clip-path:url(#SVGID_4_);}
	.st39{opacity:0.3;fill:#95BD63;}
	.st40{opacity:0.3;clip-path:url(#SVGID_6_);fill:#81AB4B;}
	.st41{opacity:0.3;clip-path:url(#SVGID_8_);fill:#81AB4B;}
	.st42{fill:#7FB553;}
	.st43{fill:#6DA032;}
	.st44{fill:#CBD65E;}
	.st45{fill:#96BB51;}
	.st46{fill:#ABC557;}
	.st47{opacity:0.5;fill:#FFFFFF;}
	.st48{fill:#85A343;}
	.st49{fill:#B1A393;}
	.st50{fill:#EDD5BF;}
	.st51{fill:#E05B36;}
	.st52{fill:#EE762C;}
	.st53{fill:#E1A978;}
	.st54{fill:#604C47;}
	.st55{fill:#A17F65;}
	.st56{fill:#6CAF51;}
	.st57{fill:#297602;}
	.st58{fill:#297000;}
	.st59{fill:#388409;}
	.st60{fill:#F04E41;}
	.st61{fill:#F04E40;}
	.st62{fill:#F3735C;}
	.st63{fill:#417602;}
	.st64{fill:#417000;}
	.st65{fill:#528409;}
	.st66{fill:#FF4F77;}
	.st67{fill:#FF6086;}
	.st68{fill:#FF7596;}
	.st69{fill:#FF3D6B;}
	.st70{fill:#EE292E;}
	.st71{fill:#7EA61F;}
	.st72{fill:#68990A;}
	.st73{fill:#56860C;}
	.st74{fill:#FFDD60;}
	.st75{fill:#FFCB4E;}
	.st76{fill:#ECAE01;}
	.st77{fill:#F68E21;}
	.st78{fill:#FDD152;}
	.st79{fill:none;}
	.st80{fill:#E0E69E;}
	.st81{opacity:0.23;}
	.st82{fill:#A4DDF4;}
	.st83{opacity:0.25;fill:#FFFFFF;}
	.st84{opacity:0.44;fill:#FFFFFF;}
</style>
<g>
	<circle class="st2" cx="105.3" cy="100" r="74.2"/>
	<polygon class="st7" points="64,151.7 80.7,142.6 73.6,140.9 65.6,139.7 62,139.3 	"/>
	<path class="st4" d="M75.4,90.8c0,0,1.6-5.2,6.1-5.5c4.5-0.4,5.2-0.6,7.2-0.2c2.1,0.3,4-1.8,4.4,0.1c0.4,1.9-0.2,2.1-1.3,3.7
		c-1.1,1.6-1,2-3.4,2.5s-5.7,0-5.7,0s-1.3-0.6-3-0.6c-1.7,0-2,0.2-2,0.2L75.4,90.8z"/>
	<path class="st8" d="M84.3,91.5c0,0-4.8-1.3-5.8-0.6c-1.1,0.6-1.7,2.2-1.7,2.9c0,0.7,0.1,2,0.1,3.8c0,1.8,1.3,5.5,5.6,6.2
		s8,0.8,9.9-0.3c1.9-1.1,2.7-1.7,3.1-4.1c0.3-2.4,0.8-2.9-0.2-4.5c-1-1.5-0.9-1.6-1.8-2c-0.9-0.5-2.8-1.5-2.8-1.5l-1.4,0l-2.7,0.3
		L84.3,91.5z"/>
	<path class="st4" d="M76.4,100c0,0-3.6,6.6-0.9,10c0,0,11.3,2.7,17.5,1.5c6.1-1.2,6-1.4,6-1.4s-5.2,0.4-8-1.7
		c-2.8-2.1-3.8-3.4-3.8-3.4S78.2,105,76.4,100z"/>
	<path class="st4" d="M77.7,132.6c0,0.2,0.1,0.5,0.1,0.7c0.2,2.4-0.8,5-2.7,6.6c-0.1,0.1-0.3,0.2-0.4,0.3c-1.3,1-2.9,1.6-4,2.7
		c-0.7,0.7-1.3,1.8-1.3,2.8c-0.1,0.9-1.2,1.4-1.7,0.7c-0.5-0.5-0.8-1.2-0.9-1.9c-0.2-1.1,0.1-2.2,0.3-3.3c0.1-0.7,0.3-1.5,0.2-2.3
		l-5.2-0.8l-0.2,0.1l-0.1-0.4l-1.5-7.1l-2.5-0.5l0,0c2.5-1.6,5.3-2.8,8.2-3.5c2.7-0.6,5.6-0.7,8.1,0.7
		C75.9,128.4,77.3,130.4,77.7,132.6z"/>
	<path class="st4" d="M162.5,78.2c2.9-0.9,6.1-1,9.1-0.4c1.7,0.3,3.4,0.8,5.2,0.9c1.8,0,5.5-0.9,7.8-6.9c1.6,1.5,2.7,3.5,3.1,5.7
		c0.4,2.2-0.1,4.5-1.5,6.2c-1.5,1.9-3.9,2.9-6.3,3.4c-2.3,0.5-4.7,0.5-7.1,0.1c-0.2,0-0.4-0.1-0.6-0.1c-2.9-0.5-5.8-1.8-8.8-1.6
		c-0.7,0-1.4,0.2-2,0.4c-3.5,1-6.5,4-8.5,7.1c-1.2-4.7,1-9.5,4.9-12.4C159.2,79.5,160.8,78.7,162.5,78.2z"/>
	<path class="st7" d="M176.8,78.6c-1.8,0-3.5-0.6-5.2-0.9c-3-0.5-6.2-0.4-9.1,0.4l-0.2-0.7l11.2-22.1l11.1,16.4
		C182.3,77.7,178.6,78.7,176.8,78.6z"/>
	<path class="st16" d="M184.6,71.7c-0.6,1.6-1.3,2.8-2,3.8l-8.8-13.1l-7.6,15.1c-1.2,0.1-2.4,0.3-3.6,0.7l-0.2-0.7l11.2-22.1
		L184.6,71.7z"/>
	<path class="st4" d="M83.8,115.9c4.4,0.9,9.2,0.9,13.3-1c3.4-1.6,6.1-4.4,7.5-7.8c0.2-0.6,0.4-1.1,0.6-1.7c0.8-2.8,0.8-5.8-0.1-8.6
		c0.7-0.1,1.4-0.3,2-0.7c1.2-0.9,1.8-2.3,2.1-3.7c0.7-3.4,0-7-2-9.9c-1.6-2.4-4.7-3.8-7-1.2c-0.4-1.6-0.7-3.3-1.1-4.9
		c-1-4.2-1.9-8.6-1.5-12.9c0.5-4.9,2.7-9.6,6.3-13c3.6-3.4,8.4-5.5,13.3-5.7c3.9-0.1,7.8,1,10.7,3.9c3,2.8,4.7,6.7,5.6,10.7
		c1.7,7.6,0.2,15.9-3.9,22.6l-0.4,0.1c-0.6-1.8-1.8-3.4-3.8-3c-2.4,0.5-3.7,4.4-4.2,6.4c-0.4,1.5-0.5,3.1,0,4.5
		c0.5,1.4,1.8,2.7,3.3,2.8c0.3,0,0.5,0,0.8,0l0.1,0.3c0.5,3.1,0.1,6.3,0.6,9.4c0.5,3.1,2.2,6.3,5.2,7.2c1.5,0.4,3.1,0.1,4.6-0.2
		c6.2-1.3,12.3-3.7,17.2-7.8c4.8-4.1,8.2-9.1,8.4-15.5c0.7-0.2,1.3-0.3,2-0.4c3-0.2,5.9,1,8.8,1.6c0.2,0,0.4,0.1,0.6,0.1l-0.1,0.8
		c0,9.1-4.5,18.1-11.8,23.6l0.2,0.9c0.7-0.1,1.4-0.2,2.1-0.3c2.1-0.3,4.4-0.4,6.2,0.6c2.4,1.3,3.5,4.4,3.2,7.1
		c-0.4,2.7-1.9,5.2-3.7,7.3c-2.1,2.5-5,4.7-8.2,4.8c-3.1,0.1-6.3-1.6-9-0.3c-1.7,0.8-2.3,2.8-2.4,4.7c-0.1,5.5,8,5.6,9.9,5.8
		c-2.1,0.6-4.1,1.7-6.1,2.7c-2.4,1.2-4.9,2.3-7.6,2.3c-4,0-7.8-2.7-9.4-6.3c-1.5-3.4-1.2-7.4,0.6-10.6l-0.8,0
		c-3.1,0.5-6.3,1.1-9.5,1c-3.2,0-6.4-0.7-9.2-2.4c-3.9-2.4-6.4-7-6.3-11.6l0,0c-2.6,4.8-7.1,8.5-12.1,10.8c-6.5,3-13.8,3.9-20.9,4.5
		c-0.4-2.2-1.8-4.2-3.8-5.2c-2.4-1.3-5.4-1.2-8.1-0.7c-2.9,0.6-5.7,1.8-8.2,3.5l0,0l-10.8-2.1c-0.4-3.1,0.1-6.4,1.4-9.2
		c1.1-2.4,2.9-4.4,5-5.9c1.6-1.2,3.5-2,5.5-2.4c4-0.8,8.2,0.1,12.1,1.4C75.2,113.3,79.4,115,83.8,115.9z"/>
	<path class="st12" d="M128.9,49.5c-2.3-1.2-5-1.8-7.7-1.7c-4.9,0.3-9.7,2.3-13.3,5.7c-3.5,3.4-5.8,8.1-6.3,13
		c-0.4,4.3,0.5,8.7,1.5,12.9c0,0.1,0.1,0.3,0.1,0.4c-1,0-2,0.4-2.9,1.4c-0.4-1.6-0.7-3.3-1.1-4.9c-1-4.2-1.9-8.6-1.5-12.9
		c0.5-4.9,2.7-9.6,6.3-13c3.6-3.4,8.4-5.5,13.3-5.7c3.9-0.1,7.8,1,10.7,3.9C128.3,48.8,128.6,49.1,128.9,49.5z"/>
	<path class="st3" d="M99.7,81.9c2.2-2.6,5.3-1.2,7,1.2c1.9,2.8,2.7,6.5,2,9.9c-0.3,1.4-0.9,2.8-2.1,3.7c-0.6,0.4-1.3,0.7-2,0.7
		c-1,0.1-2.1-0.2-3-0.7c-1.5-0.9-2.5-2.5-3.1-4.2C98,91,98,89.2,98.1,87.4c0.1-1.8,0.3-3.7,1.4-5.1C99.6,82.1,99.6,82,99.7,81.9z"/>
	<path class="st4" d="M79.4,66.3c0.5,1.9-0.6,3.9-1.9,5.4c-0.8,0.9-1.8,1.7-2.8,2.4c-1.9,1.3-4.1,2.2-6.4,2.8c-2.4,0.6-5,0.9-7.5,1
		c-1,0-2.1,0.1-3.1,0.1c-2.1,0-4.2,0-6.1-0.7c-2-0.7-3.8-2-4.5-4c-1-2.8,1-6.3,3.9-6.9l0.5,0l0.2,6l20.7-0.6l-0.3-9.4
		c1.3,0.1,2.7,0.2,4,0.7C77.6,63.6,78.9,64.7,79.4,66.3z"/>
	<polygon class="st7" points="71.5,63 71.8,72.4 51.1,73 50.9,67.1 50.6,54.3 71.2,53.7 	"/>
	<polygon class="st16" points="71.7,69.2 71.8,72.4 51.1,73 50.6,54.3 54.4,54.2 54.8,69.6 	"/>
	<path class="st8" d="M75.7,109.8c5,1.4,10.2,2.4,15.5,2c5.2-0.4,10.4-2.5,13.8-6.5l0.3,0.1c-0.2,0.6-0.4,1.2-0.6,1.7
		c-1.4,3.4-4.2,6.3-7.5,7.8c-4.1,1.9-8.9,1.9-13.3,1c-4.4-0.9-8.7-2.6-13-3.9c-3.9-1.2-8.1-2.2-12.1-1.4c-2,0.4-3.8,1.2-5.5,2.4
		l-0.3-0.4c-3.8-3.7-4.9-9.6-3.7-14.8c1.3-5.2,4.6-9.6,8.5-13.2c1.1-1,2.2-2,2.8-3.3c0.5-1.1,0.7-2.4,0.1-3.5c2.5-0.1,5.1-0.4,7.5-1
		c2.3-0.6,4.4-1.5,6.4-2.8c0.3,3-0.9,6-2.6,8.6c-1.9,2.9-4.4,5.3-6.3,8.2c-1.9,2.9-3.2,6.4-2.4,9.8c0.7,2.6,2.6,4.7,4.9,6.2
		C70.5,108.3,73.1,109.1,75.7,109.8z"/>
	<polygon class="st3" points="46.5,128.9 57.2,131 59.6,131.8 61.6,137.7 61.7,138.2 64.7,152 64.8,152.4 35.5,146 28.2,124.6 	"/>
	<path class="st12" d="M50.7,128.8c-0.4-2.6,0.2-5.2,1.6-7.4s3.7-3.7,6.2-4.4c4.3-1.1,8.8,0.6,13,1.8c4,1.1,8.2,1.7,12.4,1.7
		c3.9,0.1,8-0.3,11.5-2.1c3.5-1.8,6.5-5.1,6.9-9.1c-1.8,4.4-6.6,7.4-11.4,7.8c-4.7,0.4-9.4-1-13.9-2.7s-8.9-3.5-13.6-4
		s-9.9,0.5-13.2,3.9c-3.5,3.5-4.3,8.9-4,13.9c1.2-0.2,2.3-0.5,3.5-0.2c0.3,0.1,0.5,0.1,0.7,0.3C50.7,128.5,50.8,128.6,50.7,128.8z"
		/>
	<path class="st12" d="M167.2,120.2c-1,2.5-3.1,4.6-5.6,5.6c-2.8,1.1-5.8,1-8.8,1.4c-3,0.3-6.2,1.4-7.7,3.9
		c-1.7,2.8-0.7,6.6,1.7,8.8c2.4,2.2,5.9,2.8,9.1,2.5c-2.5-0.3-5-1.6-6.1-3.8c-1.1-2.2-0.5-5.4,1.8-6.5c2.2-1.1,4.9,0.1,7.3,0.1
		c3.3,0.1,6.3-1.9,8.7-4.2c2.3-2.3,4.1-5.2,4.3-8.5c0.1-2.3-1.6-7.3-4.6-7.2c-0.2,1,0.5,2.6,0.6,3.7
		C168,117.4,167.7,118.8,167.2,120.2z"/>
	<path class="st12" d="M162.6,102.6c-2.6,3.6-5.8,7-9.9,8.7c-2.4,1-5.1,1.2-7.7,1.9c-3.4,0.9-6.6,2.5-10.1,3.3
		c-3.5,0.7-7.4,0.4-10-2c2.1,2,4.6,3.8,7.4,4.4c3.3,0.8,6.7,0.1,9.9-1c3.2-1.1,6.3-2.5,9.5-3.3c2.9-0.7,6-0.9,8.6-2.4
		c2.4-1.4,4.1-3.7,5.7-6c3.7-5.5,6.7-12,5.7-18.5c-2-0.6-2.3-0.6-2.7,1.5c-0.4,1.6-0.8,3.2-1.5,4.8
		C166.3,97.1,164.6,100,162.6,102.6z"/>
	<path class="st12" d="M184.1,72.3c0.8,3.2,0.6,7-1.7,9.3c-2.4,2.4-6.3,2.7-9.6,2.2s-6.8-1.5-10.2-0.9c-4.7,0.7-8.8,4.6-9.7,9.3
		c2.1-2.4,4.6-4.3,7.7-5.3c3.9-1.2,8.1-0.2,12.2,0.4c4.1,0.6,8.6,0.6,11.7-2.1c1.8-1.6,2.8-4,2.7-6.3s-1.3-4.7-3.2-6.1
		C183.8,72.7,184.3,72.2,184.1,72.3z"/>
	<ellipse transform="matrix(0.5371 -0.8435 0.8435 0.5371 0.9817 116.9889)" class="st17" cx="107.1" cy="57.6" rx="4.9" ry="2.1"/>
	<ellipse transform="matrix(0.5371 -0.8435 0.8435 0.5371 -43.3358 96.1173)" class="st18" cx="65.9" cy="87.5" rx="4.9" ry="2.1"/>
	<circle class="st17" cx="112.7" cy="56.8" r="0.9"/>
	
		<ellipse transform="matrix(0.5371 -0.8435 0.8435 0.5371 -1.5862 122.5548)" class="st17" cx="110.9" cy="62.7" rx="1.4" ry="1.1"/>
	<ellipse transform="matrix(0.5371 -0.8435 0.8435 0.5371 -59.2328 137.4019)" class="st19" cx="95.6" cy="122.7" rx="2" ry="1.5"/>
	<ellipse transform="matrix(0.5371 -0.8435 0.8435 0.5371 -51.7009 93.155)" class="st18" cx="59" cy="93.7" rx="1.4" ry="1.1"/>
	<circle class="st17" cx="107.6" cy="63.2" r="0.7"/>
	<circle class="st20" cx="163.2" cy="89.4" r="0.7"/>
	<circle class="st18" cx="54.7" cy="99.6" r="0.7"/>
	<ellipse transform="matrix(0.6041 -0.7969 0.7969 0.6041 -11.2613 109.5184)" class="st17" cx="104.6" cy="66.1" rx="1.7" ry="1"/>
	
		<ellipse transform="matrix(0.6041 -0.7969 0.7969 0.6041 -10.6385 115.802)" class="st17" cx="111.2" cy="68.6" rx="2.6" ry="1.2"/>
	
		<ellipse transform="matrix(0.6041 -0.7969 0.7969 0.6041 -73.0369 95.7262)" class="st19" cx="59.8" cy="121.4" rx="2.6" ry="1.2"/>
	
		<ellipse transform="matrix(0.3418 -0.9398 0.9398 0.3418 -41.5152 198.9672)" class="st19" cx="121.3" cy="129.1" rx="1.2" ry="2.6"/>
	
		<ellipse transform="matrix(0.3418 -0.9398 0.9398 0.3418 -41.535 226.4809)" class="st19" cx="140.9" cy="142.9" rx="1.2" ry="2.6"/>
	<ellipse transform="matrix(0.3776 -0.926 0.926 0.3776 10.0944 208.0692)" class="st20" cx="159.8" cy="96.5" rx="2.6" ry="1.2"/>
	<ellipse transform="matrix(0.433 -0.9014 0.9014 0.433 8.7413 138.7769)" class="st17" cx="114.7" cy="62.4" rx="1" ry="0.6"/>
	<ellipse transform="matrix(0.433 -0.9014 0.9014 0.433 8.405 200.1891)" class="st20" cx="163.3" cy="93.4" rx="1" ry="0.6"/>
	<ellipse transform="matrix(0.433 -0.9014 0.9014 0.433 -64.1539 153.318)" class="st19" cx="89.8" cy="127.7" rx="1" ry="0.6"/>
	<circle class="st3" cx="105.9" cy="69.7" r="0.5"/>
	<circle class="st20" cx="158.3" cy="100.2" r="0.5"/>
	
		<ellipse transform="matrix(0.9996 -2.892544e-02 2.892544e-02 0.9996 -2.8494 1.8027)" class="st18" cx="60.9" cy="99.4" rx="1.7" ry="2.6"/>
	<path class="st13" d="M116.7,45.4c-4.9,0.3-9.7,2.3-13.3,5.7c-3.5,3.4-5.8,8.1-6.3,13c-0.4,4.3,0.5,8.7,1.5,12.9
		c0.4,1.6,0.7,3.3,1.1,4.9"/>
	<path class="st13" d="M99.7,81.9c-0.1,0.1-0.2,0.2-0.3,0.3c-1.1,1.4-1.3,3.3-1.4,5.1C98,89.2,98,91,98.5,92.7
		c0.5,1.7,1.5,3.3,3.1,4.2c0.9,0.5,1.9,0.8,3,0.7c0.7-0.1,1.4-0.3,2-0.7c1.2-0.9,1.8-2.3,2.1-3.7c0.7-3.4,0-7-2-9.9
		C105.1,80.8,102,79.4,99.7,81.9z"/>
	<path class="st13" d="M104.5,97.5c0.8,2.8,0.9,5.8,0.1,8.6c-0.2,0.6-0.4,1.2-0.6,1.7c-1.4,3.4-4.2,6.3-7.5,7.8
		c-4.1,1.9-8.9,1.9-13.3,1c-4.4-0.9-8.7-2.6-13-3.9c-3.9-1.2-8.1-2.2-12.1-1.4c-2,0.4-3.8,1.2-5.5,2.4c-2.1,1.5-3.9,3.6-5,5.9
		c-1.4,2.8-1.8,6.1-1.4,9.2l0,0"/>
	<path class="st13" d="M77.1,133.3c7.1-0.6,14.4-1.5,20.9-4.5c5-2.3,9.5-6,12.1-10.8c0.6-1.1,1.1-2.2,1.4-3.4"/>
	<path class="st13" d="M104.3,106c-3.4,4-8.6,6-13.8,6.5c-5.2,0.4-10.4-0.6-15.5-2c-2.6-0.7-5.2-1.5-7.4-3c-2.3-1.4-4.2-3.6-4.9-6.2
		c-0.9-3.4,0.5-6.9,2.4-9.8c1.9-2.9,4.4-5.3,6.3-8.2c1.7-2.5,2.9-5.6,2.6-8.6"/>
	<path class="st13" d="M52.4,113.3c-3.8-3.7-4.9-9.6-3.7-14.8c1.3-5.2,4.6-9.6,8.5-13.2c1.1-1,2.2-2,2.8-3.3
		c0.5-1.1,0.7-2.4,0.1-3.5"/>
	<path class="st13" d="M50.4,67.1c-3,0.6-5,4.1-3.9,6.9c0.7,1.9,2.5,3.3,4.5,4c2,0.7,4.1,0.7,6.1,0.7c1,0,2.1,0,3.1-0.1
		c2.5-0.1,5.1-0.4,7.5-1c2.3-0.6,4.4-1.5,6.4-2.8c1-0.7,2-1.5,2.8-2.4c1.4-1.5,2.4-3.5,1.9-5.4c-0.4-1.5-1.8-2.7-3.2-3.2
		c-1.3-0.5-2.6-0.6-4-0.7"/>
	<path class="st13" d="M124.7,93.6c0.5,3.1,0.1,6.3,0.6,9.4c0.5,3.1,2.2,6.3,5.2,7.2c1.5,0.4,3.1,0.1,4.6-0.2
		c6.2-1.3,12.3-3.7,17.2-7.8s8.2-9.1,8.4-15.5"/>
	<path class="st13" d="M172.1,88.7c0,9.1-4.5,18.1-11.8,23.6"/>
	<path class="st13" d="M123.5,113.9c2.7,4.4,8.6,6,13.8,5.5c5.2-0.5,10-2.8,15-4.3c2.7-0.8,5.4-1.5,8.1-2c0.7-0.1,1.4-0.2,2.1-0.3
		c2.1-0.3,4.4-0.4,6.2,0.6c2.4,1.3,3.5,4.4,3.2,7.1c-0.4,2.7-1.9,5.2-3.7,7.3c-2.1,2.5-5,4.7-8.2,4.8c-3.1,0.1-6.3-1.6-9-0.3
		c-1.7,0.8-2.3,2.8-2.4,4.7c-0.1,5.5,8,5.6,9.9,5.8c0,0,0,0,0,0"/>
	<path class="st13" d="M110.1,118c-0.1,4.6,2.4,9.2,6.3,11.6c2.7,1.7,6,2.3,9.2,2.4c3.2,0,6.4-0.5,9.5-1"/>
	<path class="st13" d="M157.1,120.1c-1.3,1.5-3.2,2.2-5.1,2.6c-1.9,0.4-3.9,0.4-5.8,0.8c-3.9,0.8-7.5,3.1-9.7,6.5
		c-0.2,0.3-0.3,0.5-0.5,0.8c-1.7,3.2-2,7.3-0.6,10.6c1.6,3.6,5.4,6.3,9.4,6.3c2.7,0,5.2-1.1,7.6-2.3c2-1,4-2.1,6.1-2.7"/>
	<path class="st21" d="M109.6,101.5c0.3,1.6,1.8,2.8,3.4,3s3.2-0.5,4.3-1.7c1.1-1.2,1.6-2.8,1.6-4.4"/>
	<path class="st13" d="M129.1,82.5c4.1-6.6,5.6-14.9,3.9-22.6c-0.9-4-2.6-7.9-5.6-10.7c-2.9-2.8-6.8-4-10.7-3.9"/>
	<path class="st13" d="M183.9,72.4c1.6,1.5,2.7,3.5,3.1,5.7c0.4,2.2-0.1,4.5-1.5,6.2c-1.5,1.9-3.9,2.9-6.3,3.4
		c-2.3,0.5-4.7,0.5-7.1,0.1c-0.2,0-0.4-0.1-0.6-0.1c-2.9-0.5-5.8-1.8-8.8-1.6c-0.7,0-1.4,0.2-2,0.4c-3.5,1-6.5,4-8.5,7.1
		c-1.2-4.7,1-9.5,4.9-12.4c1.5-1.1,3.1-1.9,4.8-2.4c2.9-0.9,6.1-1,9.1-0.4c1.7,0.3,3.4,0.8,5.2,0.9
		C177.9,79.4,181.7,78.4,183.9,72.4"/>
	<polyline class="st13" points="161.7,78.2 172.8,56 183.9,72.4 	"/>
	<polygon class="st22" points="46.2,128.8 27.6,125.3 34.9,146.7 64.2,153.1 64.1,152.7 61.1,138.9 61,138.5 59.5,131.4 57,130.9 	
		"/>
	<line class="st22" x1="66.5" y1="139.7" x2="61.4" y2="138.8"/>
	<polyline class="st22" points="74.1,140.9 82.4,142.2 64.1,152.7 63.7,152.9 	"/>
	<polygon class="st13" points="71.5,63.1 71.8,72.5 51.1,73.1 50.9,67.1 50.6,54.3 71.2,53.7 	"/>
	<path class="st13" d="M57,130.9c2.5-1.6,5.3-2.8,8.2-3.5c2.7-0.6,5.6-0.7,8.1,0.7c2,1.1,3.4,3.1,3.8,5.2c0,0.2,0.1,0.5,0.1,0.7
		c0.2,2.4-0.8,5-2.7,6.6c-0.1,0.1-0.3,0.2-0.4,0.3c-1.3,1-2.9,1.6-4,2.7c-0.7,0.7-1.3,1.8-1.3,2.8c-0.1,0.9-1.2,1.4-1.7,0.7
		c-0.5-0.5-0.8-1.2-0.9-1.9c-0.2-1.1,0.1-2.2,0.3-3.3c0.1-0.7,0.3-1.5,0.2-2.3c0-0.3-0.1-0.6-0.2-1c-0.4-1-1.4-1.9-2.5-1.7
		c-0.9,0.2-1.6,1.1-2.5,1.4"/>
	<ellipse transform="matrix(0.993 -0.1177 0.1177 0.993 -9.8242 12.7699)" class="st9" cx="103.2" cy="89.5" rx="1.5" ry="2.7"/>
	
		<ellipse transform="matrix(0.9996 -2.892544e-02 2.892544e-02 0.9996 -2.5465 3.0215)" class="st3" cx="103.2" cy="89.5" rx="0.6" ry="0.6"/>
	<path class="st13" d="M99.3,78.5c0.6-1.2,1.7-2.1,2.9-2.5c1.3-0.4,2.7-0.2,3.9,0.4"/>
	<path class="st13" d="M130.4,79c-0.7-1.8-2.4-3.1-4.3-3.4s-3.9,0.4-5.1,1.9"/>
	<path class="st13" d="M74.4,109.7c-0.6-3.4,0.1-6.9,1.8-9.9"/>
	<path class="st13" d="M105,104.5c-2.6,4.6-8,5.8-12.9,4.4c-2.5-0.7-4.7-2.3-6.2-4.3"/>
	<path class="st13" d="M76.4,92.1c-0.1,1.8-0.2,3.6,0,5.4s1,3.5,2.3,4.8c2,2,5.2,2.3,8,2.2c3-0.2,6.2-1,7.9-3.5
		c1.2-1.7,1.5-4.1,0.6-6c-0.9-1.9-3.2-4-5.3-4.2"/>
	<path class="st13" d="M93.1,84.8c0.2,3.2-2.3,6.3-5.5,6.8c-1.5,0.3-3.1,0-4.6-0.4c-1.5-0.3-3.1-0.6-4.6-0.4
		c-1.5,0.2-1.5,1.4-2.1,2.8"/>
	<path class="st13" d="M76.3,93.7c0-2.3-0.7-4.9,1-6.5c1.7-1.6,4-2.6,6.3-2.5c1.5,0,3,0.5,4.5,0.7c1.5,0.2,3.7,0.3,5-0.5"/>
	<path class="st13" d="M83.3,91.6c-0.3,1.6,0.1,3.3,1.2,4.4s3.1,1.3,4.4,0.4c0.5-0.3,0.9-0.9,0.8-1.5c-0.1-0.6-0.8-1-1.3-0.7"/>
	<path class="st3" d="M123.8,94.4c-1.7-0.1-3.1-1.5-3.6-3c-0.6-1.6-0.4-3.3,0-4.9c0.5-2.2,2-6.5,4.7-7.1c2.2-0.4,3.5,1.4,4.2,3.3
		c0.3,0.8,0.4,1.7,0.5,2.5c0.1,2.8-0.3,5.8-2.2,7.8c-0.7,0.7-1.6,1.3-2.6,1.4C124.4,94.4,124.1,94.4,123.8,94.4z"/>
	<path class="st13" d="M128.8,82.7c-0.6-1.9-2-3.7-4.2-3.3c-2.6,0.5-4.1,4.9-4.7,7.1c-0.4,1.6-0.6,3.3,0,4.9c0.6,1.6,2,2.9,3.6,3
		c0.3,0,0.6,0,0.8,0c1-0.2,1.9-0.7,2.6-1.4c2-2,2.4-5,2.2-7.8C129.3,84.4,129.1,83.5,128.8,82.7z"/>
	
		<ellipse transform="matrix(4.179814e-02 -0.9991 0.9991 4.179814e-02 31.6393 208.7599)" class="st9" cx="124.7" cy="87.9" rx="3" ry="1.7"/>
	
		<ellipse transform="matrix(0.9996 -2.892544e-02 2.892544e-02 0.9996 -2.4901 3.6384)" class="st3" cx="124.5" cy="87.9" rx="0.6" ry="0.7"/>
</g>
</svg>
