<?xml version="1.0" encoding="iso-8859-1"?>
<!-- Generator: Adobe Illustrator 19.0.0, SVG Export Plug-In . SVG Version: 6.00 Build 0)  -->
<svg version="1.1" id="Capa_1" xmlns="http://www.w3.org/2000/svg" xmlns:xlink="http://www.w3.org/1999/xlink" x="0px" y="0px"
	 viewBox="0 0 512 512" style="enable-background:new 0 0 512 512;" xml:space="preserve">
<g>
	<g>
		<circle style="fill:#36B294;" cx="256" cy="256" r="256"/>
	</g>
	<g>
		<path style="fill:#52C883;" d="M330.865,11.151c-30.329,10.59,0.847,24.906-18.865,34.182
			C289.333,56,289.701,70.179,285.333,74.667L349,96.377c0,0,71.041,3.81,111.195,5.249C428.055,59.18,383,27.072,330.865,11.151z"
			/>
	</g>
	<g>
		<path style="fill:#36B294;" d="M460.195,101.626c-15.256-20.147-33.5-37.867-53.951-52.731C387.5,52.25,358.5,39,343.25,46.25
			C334.948,50.197,331.5,60,331.5,60s44.184,23.668,76.728,39.374C426.342,100.24,445.371,101.095,460.195,101.626z"/>
	</g>
	<g>
		<path style="fill:#52C883;" d="M57.174,94.793c1.256,0.539,2.615,0.973,4.159,1.207c22,3.333,166.464-16.509,166.464-16.509
			c2.202-14.825,1.536-23.332-13.131-30.078C200,42.667,201.333,30.667,190,25.333c-4.208-1.98-15.497-4.694-28.293-7.326
			C120.553,34.328,84.634,60.968,57.174,94.793z"/>
	</g>
	<g>
		<path style="fill:#36B294;" d="M58.435,93.337c3.098,0.143,6.87-0.051,11.565-0.671C105.333,88,182.352,54.9,182.352,54.9
			c-9.548-4.669-12.852-16.983-23.852-15.15c-13.589,2.265-33.264,5.211-44.571,3.462C93.07,57.155,74.353,74.027,58.435,93.337z"/>
	</g>
	<g>
		<path style="fill:#B3F4EF;" d="M12.344,334.592C45.52,437.516,142.041,512,256,512s210.48-74.484,243.656-177.408H12.344z"/>
	</g>
	<g>
		<polygon style="fill:#745154;" points="287.717,336 284.252,183.741 279.959,80 		"/>
	</g>
	<g>
		<path style="fill:#745154;" d="M321.333,68c-16.664,8.749-37.131-5.333-37.131,11.491l0.05,104.25l-0.414,152.461L336.958,356
			L320,376h112l68.623-44.341C508.012,307.746,512,282.339,512,256c0-69.407-27.664-132.32-72.514-178.432
			C405.064,69.486,343.905,56.15,321.333,68z"/>
	</g>
	<g>
		<path style="fill:#86646A;" d="M439.486,77.568C405.064,69.486,352,37.5,328,56c-23.132,17.831-43.798,6.667-43.798,23.491l0,1.08
			C288.458,92.515,296.742,104.451,306,102c17-4.5,14.561-21.835,27-26.5c16-6,16,17,27,23.378c11.964,6.937-19,70.122-11,75.477
			c11.341,7.591,23.223-22.505,38.5-36.355s27.487-4.467,39,0c21.905,8.5,21.905-15,47.598-15.909
			C464.187,105.998,452.597,91.047,439.486,77.568z"/>
	</g>
	<g>
		<polyline style="fill:#745154;" points="283.838,336.202 293.333,356 320,376 		"/>
	</g>
	<g>
		<path style="fill:#674447;" d="M512,256c0-7.431-0.381-14.77-1.002-22.04L496,232c-19,0-32.091-24-48-24
			c-27.333,0-36,42-59.794,37.398c-6.986-1.351-13.972-4.55-20.841-8.398c-16.849-9.44-52.365,31-79.648,31l-3.736,15.394
			l-0.143,52.808L336.958,356l-11.361,13.398L340,376h92l68.623-44.341C508.012,307.746,512,282.339,512,256z"/>
	</g>
	<g>
		<g>
			<polygon style="fill:#745154;" points="224.283,336 227.748,183.741 232.041,80 			"/>
		</g>
		<g>
			<path style="fill:#745154;" d="M184,56c20.667,14.667,43.798,5,43.798,23.491l-0.05,104.25L228.162,336l93.172,23.333
				L234.666,376H80l-68.623-44.341C3.988,307.746,0,282.339,0,256c0-69.407,27.664-132.32,72.514-178.432
				C106.936,69.486,154.738,35.233,184,56z"/>
		</g>
	</g>
	<g>
		<path style="fill:#674447;" d="M228.162,336l-0.209-77.118L224,256c-24,0-33.82-39.471-64-48
			c-30.667-8.667-53.773,33.387-60.667,24c-3.917-5.333,21.164-72-11.333-72c-28.944,0-42.662-34.911-42.662-34.911l-3.628-9.067
			C15.358,156.248,0,204.317,0,256c0,2.837,0.227,5.618,0.318,8.433C28.403,293.869,105.378,373.654,107.333,376
			c2.5,3,66.667-1,66.667-1s41.5-16,47.5-18.899c1.828-0.883,5.005-8.914,8.536-19.632L228.162,336z"/>
	</g>
	<g>
		<g>
			<path style="fill:#FFFFFF;" d="M320,328c-2.078,0-4.164-0.883-5.68-2.32c-1.445-1.52-2.32-3.602-2.32-5.68
				c0-2.082,0.875-4.16,2.32-5.68c2.961-2.961,8.32-2.961,11.359,0c1.438,1.52,2.32,3.598,2.32,5.68c0,2.078-0.883,4.16-2.32,5.68
				C324.156,327.117,322.078,328,320,328z"/>
		</g>
	</g>
	<g>
		<g>
			<path style="fill:#FFFFFF;" d="M349,335.95c-2.078,0-4.164-0.883-5.68-2.32c-1.445-1.52-2.32-3.602-2.32-5.68
				c0-2.082,0.875-4.16,2.32-5.68c2.961-2.961,8.32-2.961,11.359,0c1.438,1.52,2.32,3.598,2.32,5.68c0,2.078-0.883,4.16-2.32,5.68
				C353.156,335.067,351.078,335.95,349,335.95z"/>
		</g>
	</g>
	<g>
		<g>
			<path style="fill:#FFFFFF;" d="M198,331.95c-2.078,0-4.164-0.883-5.68-2.32c-1.445-1.52-2.32-3.602-2.32-5.68
				c0-2.082,0.875-4.16,2.32-5.68c2.961-2.961,8.32-2.961,11.359,0c1.438,1.52,2.32,3.598,2.32,5.68c0,2.078-0.883,4.16-2.32,5.68
				C202.156,331.067,200.078,331.95,198,331.95z"/>
		</g>
	</g>
	<g>
		<g>
			<path style="fill:#FFFFFF;" d="M360,359.95c-2.078,0-4.164-0.883-5.68-2.32c-1.445-1.52-2.32-3.602-2.32-5.68
				c0-2.082,0.875-4.16,2.32-5.68c2.961-2.961,8.32-2.961,11.359,0c1.438,1.52,2.32,3.598,2.32,5.68c0,2.078-0.883,4.16-2.32,5.68
				C364.156,359.067,362.078,359.95,360,359.95z"/>
		</g>
	</g>
	<g>
		<g>
			<path style="fill:#FFFFFF;" d="M170.5,347.851c-2.078,0-4.164-0.883-5.68-2.32c-1.445-1.52-2.32-3.602-2.32-5.68
				c0-2.082,0.875-4.16,2.32-5.68c2.961-2.961,8.32-2.961,11.359,0c1.438,1.52,2.32,3.598,2.32,5.68c0,2.078-0.883,4.16-2.32,5.68
				C174.656,346.968,172.578,347.851,170.5,347.851z"/>
		</g>
	</g>
	<g>
		<path style="fill:#86646A;" d="M88,88c4.831,2.944,10.246,29.825,12.5,24.946C115.028,81.5,137.098,105.384,168,80
			c14-11.5,33.667,9.5,40.667,18.5c11.268,14.488-5.167,72,21.369,114.207l-2.238-133.215C227.798,61,204.667,70.667,184,56
			c-29.263-20.767-77.064,13.486-111.486,21.568c-2.683,2.758-5.296,5.585-7.854,8.461C77.329,87.188,83,84.953,88,88z"/>
	</g>
	<g>
		<polygon style="fill:#DDF9FF;" points="284.202,79.491 227.798,79.491 218.667,352 293.333,352 		"/>
	</g>
	<g>
		<path style="fill:#FFFFFF;" d="M344,376c0-17.673-14.327-32-32-32c-2.472,0-4.852,0.341-7.163,0.872
			C297.996,339.405,289.438,336,280,336c-7.323,0-14.096,2.112-20,5.548c-5.904-3.436-12.677-5.548-20-5.548
			c-14.826,0-27.62,8.159-34.529,20.142C201.629,353.531,196.995,352,192,352c-13.255,0-24,10.745-24,24"/>
	</g>
	<g>
		<path style="fill:#86646A;" d="M208.667,408c0,0-2.667-21.333-30.167-23.589c-29.243-2.399-26.5-28.512-53.833-48.512
			C115.937,329.512,94.112,320.029,80,296c-18.5-31.5-48.5-28-79.163-59.797C0.336,242.744,0,249.331,0,256
			c0,56.923,18.603,109.488,50.027,152C100.123,408,189.952,408,208.667,408z"/>
	</g>
	<g>
		<path style="fill:#674447;" d="M111.75,330.523c1.134-0.277,2.098-0.59,3.107-0.894C104.449,323.136,90.226,313.412,80,296
			c-17.742-30.209-46.063-28.315-75.4-56.148l-4.255,4.342C0.144,248.107,0,252.036,0,256c0,15.179,1.415,30.015,3.95,44.466
			c18.01-0.616,38.507-5.421,43.8-0.716C54.5,305.75,83,337.546,111.75,330.523z"/>
	</g>
	<g>
		<path style="fill:#86646A;" d="M418.667,384.411c-6.492,11.406-18.435,26.922-39.517,26.922C320.15,411.333,296,448,296,448
			h129.237c37.604-33.173,65.415-77.178,78.464-127.178C452.224,326.372,435.683,354.516,418.667,384.411z"/>
	</g>
	<g>
		<path style="fill:#674447;" d="M496.959,342.296c-8.766-1.488-20.656-2.404-27.625-1.63c-5.244,0.583-17.996,6.511-30.695,13.002
			c-7.703,9.367-13.818,19.932-19.973,30.742c-3.955,6.949-9.973,15.386-18.809,20.948l-0.007,0.041
			c17.015,12.644,48.716-13.882,75.725-18.003C484.1,373.196,491.289,358.116,496.959,342.296z"/>
	</g>
	<g>
		<path style="fill:#52C883;" d="M115.018,329.741c0.003-0.001,0.007-0.002,0.01-0.003C104.606,323.245,90.28,313.504,80,296
			c-18.5-31.5-48.5-28-79.163-59.797C0.336,242.744,0,249.331,0,256c0,8.189,0.491,16.256,1.244,24.249
			C16.743,289.956,34.035,282.687,50,292C66,301.333,84.702,336.149,115.018,329.741z"/>
	</g>
	<g>
		<path style="fill:#674447;" d="M144.917,392.485c-22.414,0-40.583,13.214-40.583,29.515H185.5
			C185.5,405.699,167.33,392.485,144.917,392.485z"/>
	</g>
	<g>
		<path style="fill:#86646A;" d="M259.53,427.5c-15.568,0-28.188,9.178-28.188,20.5h56.375
			C287.717,436.678,275.097,427.5,259.53,427.5z"/>
	</g>
	<g>
		<path style="fill:#86646A;" d="M231.342,434.783c-10.037,0-18.174,5.918-18.174,13.217h36.348
			C249.516,440.7,241.38,434.783,231.342,434.783z"/>
	</g>
	<g>
		<path style="fill:#674447;" d="M95.417,399.424c-13.025,0-23.583,7.679-23.583,17.151H119
			C119,407.103,108.442,399.424,95.417,399.424z"/>
	</g>
	<g>
		<path style="fill:#674447;" d="M389.949,433.242c-28.378,0-51.383,16.731-51.383,37.37h56.773
			c11.534-7.508,22.393-15.93,32.541-25.146C418.484,437.973,404.994,433.242,389.949,433.242z"/>
	</g>
	<g>
		<path style="fill:#52C883;" d="M418.666,384.411c-3.961,6.959-9.988,15.413-18.846,20.975c0.012,0.003,0.019,0.01,0.03,0.014
			c23.356,6.357,50.005-40.643,85.608-36.164c7.599-15.352,13.829-31.503,18.242-48.414
			C452.224,326.372,435.684,354.516,418.666,384.411z"/>
	</g>
	<g>
		<path style="fill:#AEE1F9;" d="M284.202,79.491h-56.404l-6.027,179.879c17.563-12.802,19.563-126.704,28.896-119.37
			c9.333,7.333,4,57.821,12,57.821s8.236-77.163,23.451-61.159l0,0L284.202,79.491z"/>
	</g>
</g>
<g>
</g>
<g>
</g>
<g>
</g>
<g>
</g>
<g>
</g>
<g>
</g>
<g>
</g>
<g>
</g>
<g>
</g>
<g>
</g>
<g>
</g>
<g>
</g>
<g>
</g>
<g>
</g>
<g>
</g>
</svg>
