<?xml version="1.0" encoding="utf-8"?>
<!-- Generator: Adobe Illustrator 22.0.1, SVG Export Plug-In . SVG Version: 6.00 Build 0)  -->
<svg version="1.1" id="Layer_1" xmlns="http://www.w3.org/2000/svg" xmlns:xlink="http://www.w3.org/1999/xlink" x="0px" y="0px"
	 viewBox="0 0 200 200" style="enable-background:new 0 0 200 200;" xml:space="preserve">
<style type="text/css">
	.st0{fill:#7AC943;}
	.st1{fill:#467229;}
	.st2{fill:#D8EAF9;}
	.st3{fill:#FFFFFF;}
	.st4{fill:#1BA9E3;}
	.st5{fill:#CE3028;}
	.st6{fill:#F3AD89;}
	.st7{fill:#7854FC;}
	.st8{fill:#49BAE9;}
	.st9{fill:#3F3D56;}
	.st10{fill:none;stroke:#3F3D56;stroke-width:2;stroke-miterlimit:10;}
	.st11{opacity:0.15;fill:#3F3D56;}
	.st12{opacity:0.26;fill:#FFFFFF;}
	.st13{fill:none;stroke:#3F3D56;stroke-width:2;stroke-linecap:round;stroke-miterlimit:10;}
	.st14{fill:none;stroke:#1BA9E3;stroke-width:3.5;stroke-linecap:round;stroke-miterlimit:10;}
	.st15{opacity:0.5;fill:#1BA9E3;}
	.st16{opacity:0.34;fill:#FFFFFF;}
	.st17{opacity:0.64;fill:#FFFFFF;}
	.st18{opacity:0.56;fill:#FFFFFF;}
	.st19{opacity:0.7;fill:#FFFFFF;}
	.st20{opacity:0.65;fill:#FFFFFF;}
	.st21{fill:none;stroke:#FFFFFF;stroke-width:1.5;stroke-linecap:round;stroke-miterlimit:10;}
	.st22{fill:none;stroke:#3F3D56;stroke-width:2;stroke-linecap:round;stroke-linejoin:round;stroke-miterlimit:10;}
	.st23{fill:#F19377;}
	.st24{fill:#E9EDF2;}
	.st25{opacity:0.4;fill:#50719B;}
	.st26{fill:#50719B;}
	.st27{opacity:0.15;}
	.st28{opacity:0.13;}
	.st29{fill:none;stroke:#FFFFFF;stroke-width:2;stroke-linecap:round;stroke-miterlimit:10;}
	.st30{fill:#0F2F56;}
	.st31{fill:none;stroke:#3F3D56;stroke-linecap:round;stroke-miterlimit:10;}
	.st32{fill:none;stroke:#1BA9E3;stroke-width:2;stroke-linecap:round;stroke-miterlimit:10;}
	.st33{fill:#FAC1B6;}
	.st34{fill:#F3B9B0;}
	.st35{fill:#FBB3A8;}
	.st36{fill:#F7D5C4;}
	.st37{opacity:0.3;clip-path:url(#SVGID_2_);fill:#81AB4B;}
	.st38{clip-path:url(#SVGID_4_);}
	.st39{opacity:0.3;fill:#95BD63;}
	.st40{opacity:0.3;clip-path:url(#SVGID_6_);fill:#81AB4B;}
	.st41{opacity:0.3;clip-path:url(#SVGID_8_);fill:#81AB4B;}
	.st42{fill:#7FB553;}
	.st43{fill:#6DA032;}
	.st44{fill:#CBD65E;}
	.st45{fill:#96BB51;}
	.st46{fill:#ABC557;}
	.st47{opacity:0.5;fill:#FFFFFF;}
	.st48{fill:#85A343;}
	.st49{fill:#B1A393;}
	.st50{fill:#EDD5BF;}
	.st51{fill:#E05B36;}
	.st52{fill:#EE762C;}
	.st53{fill:#E1A978;}
	.st54{fill:#604C47;}
	.st55{fill:#A17F65;}
	.st56{fill:#6CAF51;}
	.st57{fill:#297602;}
	.st58{fill:#297000;}
	.st59{fill:#388409;}
	.st60{fill:#F04E41;}
	.st61{fill:#F04E40;}
	.st62{fill:#F3735C;}
	.st63{fill:#417602;}
	.st64{fill:#417000;}
	.st65{fill:#528409;}
	.st66{fill:#FF4F77;}
	.st67{fill:#FF6086;}
	.st68{fill:#FF7596;}
	.st69{fill:#FF3D6B;}
	.st70{fill:#EE292E;}
	.st71{fill:#7EA61F;}
	.st72{fill:#68990A;}
	.st73{fill:#56860C;}
	.st74{fill:#FFDD60;}
	.st75{fill:#FFCB4E;}
	.st76{fill:#ECAE01;}
	.st77{fill:#F68E21;}
	.st78{fill:#FDD152;}
	.st79{fill:none;}
	.st80{fill:#E0E69E;}
	.st81{opacity:0.23;}
	.st82{fill:#A4DDF4;}
	.st83{opacity:0.25;fill:#FFFFFF;}
	.st84{opacity:0.44;fill:#FFFFFF;}
</style>
<path class="st2" d="M174.6,100c0,38.2-28.9,69.7-66.1,73.7c-1.3,0.1-2.6,0.3-4,0.3c-1.4,0.1-2.7,0.1-4.1,0.1
	c-41,0-74.2-33.2-74.2-74.2c0-41,33.2-74.2,74.2-74.2C141.4,25.8,174.6,59,174.6,100z"/>
<rect x="47.2" y="70.8" class="st3" width="106.4" height="60.2"/>
<rect x="86.5" y="135.9" class="st24" width="31.2" height="24.8"/>
<rect x="86.5" y="135.9" class="st13" width="31.2" height="24.4"/>
<path class="st4" d="M157.8,70.7v62.1H43.1V70.7c0-2.6,2.1-4.7,4.7-4.7h105.4C155.7,66,157.8,68.1,157.8,70.7z M152.1,126.8V73H48.8
	v53.8H152.1z"/>
<path class="st3" d="M157.8,132.8v10.7c0,2.6-2.1,4.7-4.7,4.7H47.8c-2.6,0-4.7-2.1-4.7-4.7v-10.7H157.8z"/>
<path class="st25" d="M157.8,138.3v6.8c0,1.6-2.1,3-4.7,3H47.8c-2.6,0-4.7-1.3-4.7-3V144c0.8,0.8,2.3,1.4,3.9,1.4h105.4
	c2.6,0,4.7-1.3,4.7-3v-4.1H157.8z"/>
<path class="st13" d="M157.8,132.8v10.7c0,2.6-2.1,4.7-4.7,4.7h-40.6H88.3H47.8c-2.6,0-4.7-2.1-4.7-4.7v-10.7V70.7
	c0-2.6,2.1-4.7,4.7-4.7h105.4c2.6,0,4.7,2.1,4.7,4.7V132.8z"/>
<line class="st13" x1="43.1" y1="132.8" x2="157.8" y2="132.8"/>
<circle class="st26" cx="102.1" cy="140.2" r="3.3"/>
<rect x="86.1" y="147.7" class="st27" width="31.7" height="5.7"/>
<line class="st13" x1="51.5" y1="160.3" x2="157.8" y2="160.3"/>
<g>
	<path class="st28" d="M139.9,117.5H56.3c-1.3,0-2.4-1.1-2.4-2.4V47.9c0-1.6,1.3-3,3-3h82.5c1.6,0,3,1.3,3,3V115
		C142.3,116.4,141.2,117.5,139.9,117.5z"/>
	<path class="st3" d="M143.2,114.5H59.6c-1.3,0-2.4-1.1-2.4-2.4V45c0-1.6,1.3-3,3-3h82.5c1.6,0,3,1.3,3,3v67.1
		C145.6,113.4,144.5,114.5,143.2,114.5z"/>
	<path class="st4" d="M145.2,52.3H79.6v-9.6h63.9c0.9,0,1.6,0.7,1.6,1.6V52.3z"/>
	<path class="st13" d="M143.2,114.5H59.6c-1.3,0-2.4-1.1-2.4-2.4V45.2c0-1.6,1.3-3,3-3h82.5c1.6,0,3,1.3,3,3v66.9
		C145.6,113.4,144.5,114.5,143.2,114.5z"/>
	<line class="st13" x1="57.2" y1="52.3" x2="145.6" y2="52.3"/>
	<line class="st13" x1="79.6" y1="42.2" x2="79.6" y2="51.8"/>
	<line class="st29" x1="83.7" y1="47" x2="133.8" y2="47"/>
	<rect x="63.2" y="46.5" class="st30" width="2.1" height="1.8"/>
	<rect x="67.7" y="46.5" class="st30" width="2.1" height="1.8"/>
	<rect x="72.1" y="46.5" class="st30" width="2.1" height="1.8"/>
</g>
<g>
	<g>
		<polygon class="st7" points="105.5,65.9 96.4,71.3 96.4,76.6 105.5,71.2 		"/>
		<polygon class="st7" points="96.4,77.2 105.5,82.6 105.5,88 96.4,82.5 		"/>
		<polygon class="st4" points="105.5,71.2 96.4,65.8 96.4,60.5 105.5,65.9 		"/>
		<polygon class="st4" points="96.4,82.5 105.5,77.1 105.5,71.8 96.4,77.2 		"/>
	</g>
	<circle class="st32" cx="101.5" cy="74.3" r="16.2"/>
</g>
<g>
	<line class="st13" x1="77.9" y1="96" x2="101.5" y2="96"/>
	<line class="st13" x1="108.5" y1="100.3" x2="119.7" y2="100.3"/>
	<line class="st13" x1="77.9" y1="100.3" x2="99.7" y2="100.3"/>
	<line class="st13" x1="77.9" y1="104.4" x2="114.1" y2="104.4"/>
</g>
</svg>
