<?xml version="1.0" encoding="utf-8"?>
<!-- Generator: Adobe Illustrator 22.0.1, SVG Export Plug-In . SVG Version: 6.00 Build 0)  -->
<svg version="1.1" id="Layer_1" xmlns="http://www.w3.org/2000/svg" xmlns:xlink="http://www.w3.org/1999/xlink" x="0px" y="0px"
	 viewBox="0 0 200 200" style="enable-background:new 0 0 200 200;" xml:space="preserve">
<style type="text/css">
	.st0{fill:#7AC943;}
	.st1{fill:#467229;}
	.st2{fill:#D8EAF9;}
	.st3{fill:#FFFFFF;}
	.st4{fill:#1BA9E3;}
	.st5{fill:#CE3028;}
	.st6{fill:#F3AD89;}
	.st7{fill:#7854FC;}
	.st8{fill:#49BAE9;}
	.st9{fill:#3F3D56;}
	.st10{fill:none;stroke:#3F3D56;stroke-width:2;stroke-miterlimit:10;}
	.st11{opacity:0.15;fill:#3F3D56;}
	.st12{opacity:0.26;fill:#FFFFFF;}
	.st13{fill:none;stroke:#3F3D56;stroke-width:2;stroke-linecap:round;stroke-miterlimit:10;}
	.st14{fill:none;stroke:#1BA9E3;stroke-width:3.5;stroke-linecap:round;stroke-miterlimit:10;}
	.st15{opacity:0.5;fill:#1BA9E3;}
	.st16{opacity:0.34;fill:#FFFFFF;}
	.st17{opacity:0.64;fill:#FFFFFF;}
	.st18{opacity:0.56;fill:#FFFFFF;}
	.st19{opacity:0.7;fill:#FFFFFF;}
	.st20{opacity:0.65;fill:#FFFFFF;}
	.st21{fill:none;stroke:#FFFFFF;stroke-width:1.5;stroke-linecap:round;stroke-miterlimit:10;}
	.st22{fill:none;stroke:#3F3D56;stroke-width:2;stroke-linecap:round;stroke-linejoin:round;stroke-miterlimit:10;}
	.st23{fill:#F19377;}
	.st24{fill:#E9EDF2;}
	.st25{opacity:0.4;fill:#50719B;}
	.st26{fill:#50719B;}
	.st27{opacity:0.15;}
	.st28{opacity:0.13;}
	.st29{fill:none;stroke:#FFFFFF;stroke-width:2;stroke-linecap:round;stroke-miterlimit:10;}
	.st30{fill:#0F2F56;}
	.st31{fill:none;stroke:#3F3D56;stroke-linecap:round;stroke-miterlimit:10;}
	.st32{fill:none;stroke:#1BA9E3;stroke-width:2;stroke-linecap:round;stroke-miterlimit:10;}
	.st33{fill:#FAC1B6;}
	.st34{fill:#F3B9B0;}
	.st35{fill:#FBB3A8;}
	.st36{fill:#F7D5C4;}
	.st37{opacity:0.3;clip-path:url(#SVGID_2_);fill:#81AB4B;}
	.st38{clip-path:url(#SVGID_4_);}
	.st39{opacity:0.3;fill:#95BD63;}
	.st40{opacity:0.3;clip-path:url(#SVGID_6_);fill:#81AB4B;}
	.st41{opacity:0.3;clip-path:url(#SVGID_8_);fill:#81AB4B;}
	.st42{fill:#7FB553;}
	.st43{fill:#6DA032;}
	.st44{fill:#CBD65E;}
	.st45{fill:#96BB51;}
	.st46{fill:#ABC557;}
	.st47{opacity:0.5;fill:#FFFFFF;}
	.st48{fill:#85A343;}
	.st49{fill:#B1A393;}
	.st50{fill:#EDD5BF;}
	.st51{fill:#E05B36;}
	.st52{fill:#EE762C;}
	.st53{fill:#E1A978;}
	.st54{fill:#604C47;}
	.st55{fill:#A17F65;}
	.st56{fill:#6CAF51;}
	.st57{fill:#297602;}
	.st58{fill:#297000;}
	.st59{fill:#388409;}
	.st60{fill:#F04E41;}
	.st61{fill:#F04E40;}
	.st62{fill:#F3735C;}
	.st63{fill:#417602;}
	.st64{fill:#417000;}
	.st65{fill:#528409;}
	.st66{fill:#FF4F77;}
	.st67{fill:#FF6086;}
	.st68{fill:#FF7596;}
	.st69{fill:#FF3D6B;}
	.st70{fill:#EE292E;}
	.st71{fill:#7EA61F;}
	.st72{fill:#68990A;}
	.st73{fill:#56860C;}
	.st74{fill:#FFDD60;}
	.st75{fill:#FFCB4E;}
	.st76{fill:#ECAE01;}
	.st77{fill:#F68E21;}
	.st78{fill:#FDD152;}
	.st79{fill:none;}
	.st80{fill:#E0E69E;}
	.st81{opacity:0.23;}
	.st82{fill:#A4DDF4;}
	.st83{opacity:0.25;fill:#FFFFFF;}
	.st84{opacity:0.44;fill:#FFFFFF;}
</style>
<g>
	<path class="st2" d="M182,100c0,38.2-28.9,69.7-66.1,73.7c-1.3,0.1-2.6,0.3-4,0.3c-1.4,0.1-2.7,0.1-4.1,0.1
		c-41,0-74.2-33.2-74.2-74.2c0-41,33.2-74.2,74.2-74.2C148.8,25.8,182,59,182,100z"/>
	<path class="st4" d="M116.8,98.4c-5.2-4.5-14.2-5.7-18.3-11.2c-1-0.2-2.1,0.4-2.6,1.3c-0.5,0.9-0.6,2-0.5,3.1
		c0.2,2.6,1.4,5.1,3.3,7c2.7,2.6,6.7,3.8,8.9,6.8c2.9,4,2.1,10.7,0.3,14.9c-0.3,0.7-0.5,1.3-0.8,2l-1.6-0.7H87.6H74.5
		c-1.9,0-3.4-1.5-3.4-3.4c0-23.6,0-64.5,0-79.2c0-1.4,0.9-2.6,2.1-3.2c0.4-0.2,0.9-0.3,1.3-0.3c10.2,0,26.9,0,42.3,0
		c1.9,0,3.4,1.5,3.4,3.4v50v12.6l-0.4,0.3C119,100.6,118,99.4,116.8,98.4z"/>
	<path class="st3" d="M113.3,95.3c-4.4-3.8-11.8-4.8-15.3-9.4c-0.9-0.2-1.8,0.3-2.2,1.1c-0.4,0.8-0.5,1.7-0.4,2.6
		c0.2,2.2,1.2,4.3,2.8,5.9c2.3,2.2,5.6,3.2,7.5,5.7c2.4,3.4,8.1,9,6.6,12.6c-0.2,0.5,1.5,0.5,1.3,1.1h-9.6H88.9h-11
		c-1.6,0-2.9-1.3-2.9-2.9c0-19.9,0-54.3,0-66.7c0-1.2,0.7-2.2,1.7-2.7c0.4-0.1,0.7-0.2,1.1-0.2c8.5,0,22.5,0,35.4,0
		c1.6,0,2.9,1.3,2.9,2.9v42.1V98l-0.3,0.2C115.1,97.1,114.3,96.1,113.3,95.3z"/>
	<circle class="st5" cx="95.6" cy="84" r="14.4"/>
	<circle class="st3" cx="95.6" cy="84" r="11.3"/>
	<path class="st6" d="M107,122.2c0.3-0.7,0.5-1.3,0.8-2c1.8-4.2,2.6-11-0.3-14.9c-2.2-3.1-6.2-4.2-8.9-6.8c-1.9-1.8-3.1-4.3-3.3-7
		c-0.1-1,0-2.2,0.5-3.1c0.5-0.9,1.6-1.6,2.6-1.3c4.2,5.5,13.1,6.7,18.3,11.2c1.2,1,2.2,2.2,3,3.5l0.4-0.3V88.9
		c2.2,1.8,4.3,3.7,5.9,6c4.1,6.3,3.6,14.4,3.6,21.9c0,17.1,3.8,34.2,11,49.7c-8.9,4.4-18.8,7.1-29.3,7.6c-1.2-3.9-4.4-8.5-6.9-11.1
		c-3-3.1-6.3-5.9-8.6-9.6c-2.3-3.8-3.4-8.2-4-12.6s-0.9-8.8-1.8-13.1c-0.4-2-1.1-4.1-2.4-5.7v-0.5h17.9L107,122.2z"/>
	<path class="st5" d="M104.4,82.2c0.5,0.6,0.8,1.4,0.9,2.2c0,0.5-0.1,1.7-0.6,1.9c-0.2,0-0.3,0-0.5,0c-1.1-0.2-2.4-0.4-3.4-0.9
		c-1-0.4-0.4-1.3-0.7-2.3c-0.3-0.9-1.2-1.1-2-1.2c-1.8-0.1-3.7-0.1-5.6,0c-0.3,0-0.7,0.1-1,0.3c-0.3,0.2-0.5,0.6-0.5,1
		c0.4,0.5,0.5,1.2,0.4,1.9c-1.7,0.7-3.5,1.1-5.3,1.1c-0.2,0-0.1-1.7-0.1-1.9c0.1-0.6,0.2-0.9,0.5-1.3c0.7-0.9,1.7-1.6,2.7-2.1
		c1.3-0.6,2.7-0.8,4.1-1c2.6-0.2,5.2,0,7.7,0.6C102.2,80.7,103.5,81.2,104.4,82.2z"/>
	<path class="st23" d="M99.5,121.8c0,0-0.1,0-0.1-0.1C99.4,121.7,99.5,121.7,99.5,121.8z"/>
	<path class="st23" d="M115.9,173.8c-1.3,0.1-2.6,0.3-4,0.3c-1.4-2.9-3.2-5.7-5.2-8.3c-3.6-4.6-7.7-8.9-10.7-14
		c-2.8-4.7-4.6-9.9-5.3-15.4c-0.7-5.3-0.4-11.1-3.4-15.5c3.8,1.7,8.1,2.2,12.2,1.6c-0.1,0,0.1-0.6,0.1-0.8c1.5,0.9,3.5-1.1,5.3-0.6
		c1.1,0.3,1.7,1.7,1.6,2.9c-0.1,1.2-0.7,2.3-1.2,3.3c-2,4.3-2.6,9.2-1.8,13.9c1.2,7.1,5.6,13.2,8.8,19.6
		C114.2,164.9,115.8,169.4,115.9,173.8z"/>
	<path class="st13" d="M120.2,101.6V38.9c0-1.9-1.5-3.4-3.4-3.4c-15.4,0-32.1,0-42.3,0c-1.9,0-3.4,1.5-3.4,3.4c0,14.7,0,55.6,0,79.2
		c0,1.9,1.5,3.4,3.4,3.4h31"/>
	<path class="st13" d="M98.5,87.2c-1-0.2-2.1,0.4-2.6,1.3c-0.5,0.9-0.6,2-0.5,3.1c0.2,2.6,1.4,5.1,3.3,7c2.7,2.6,6.7,3.7,8.9,6.8
		c2.9,4,2.1,10.7,0.3,15c-2.4,5.5-4.3,11.3-4.4,17.4c-0.2,7.9,2.9,15.8,8.5,21.4"/>
	<path class="st13" d="M87.6,122.1c1.3,1.6,2,3.7,2.4,5.7c0.9,4.3,1.2,8.8,1.8,13.1c0.6,4.4,1.7,8.8,4,12.5c2.3,3.7,5.6,6.5,8.6,9.6
		c2.5,2.6,5.7,7.1,6.9,11.1"/>
	<path class="st13" d="M140.6,166.6c-7.2-15.5-10.9-32.6-10.9-49.8c0-7.5,0.5-15.6-3.6-21.9c-1.5-2.3-3.7-4.3-5.9-6"/>
	<path class="st13" d="M98.5,87.2c4.2,5.5,13.1,6.7,18.3,11.2c5.1,4.4,6.9,11.3,8.4,17.9"/>
</g>
</svg>
