<?xml version="1.0" encoding="utf-8"?>
<!-- Generator: Adobe Illustrator 22.0.1, SVG Export Plug-In . SVG Version: 6.00 Build 0)  -->
<svg version="1.1" id="Layer_1" xmlns="http://www.w3.org/2000/svg" xmlns:xlink="http://www.w3.org/1999/xlink" x="0px" y="0px"
	 viewBox="0 0 200 200" style="enable-background:new 0 0 200 200;" xml:space="preserve">
<style type="text/css">
	.st0{fill:#7AC943;}
	.st1{fill:#467229;}
	.st2{fill:#D8EAF9;}
	.st3{fill:#FFFFFF;}
	.st4{fill:#1BA9E3;}
	.st5{fill:#CE3028;}
	.st6{fill:#F3AD89;}
	.st7{fill:#7854FC;}
	.st8{fill:#49BAE9;}
	.st9{fill:#3F3D56;}
	.st10{fill:none;stroke:#3F3D56;stroke-width:2;stroke-miterlimit:10;}
	.st11{opacity:0.15;fill:#3F3D56;}
	.st12{opacity:0.26;fill:#FFFFFF;}
	.st13{fill:none;stroke:#3F3D56;stroke-width:2;stroke-linecap:round;stroke-miterlimit:10;}
	.st14{fill:none;stroke:#1BA9E3;stroke-width:3.5;stroke-linecap:round;stroke-miterlimit:10;}
	.st15{opacity:0.5;fill:#1BA9E3;}
	.st16{opacity:0.34;fill:#FFFFFF;}
	.st17{opacity:0.64;fill:#FFFFFF;}
	.st18{opacity:0.56;fill:#FFFFFF;}
	.st19{opacity:0.7;fill:#FFFFFF;}
	.st20{opacity:0.65;fill:#FFFFFF;}
	.st21{fill:none;stroke:#FFFFFF;stroke-width:1.5;stroke-linecap:round;stroke-miterlimit:10;}
	.st22{fill:none;stroke:#3F3D56;stroke-width:2;stroke-linecap:round;stroke-linejoin:round;stroke-miterlimit:10;}
	.st23{fill:#F19377;}
	.st24{fill:#E9EDF2;}
	.st25{opacity:0.4;fill:#50719B;}
	.st26{fill:#50719B;}
	.st27{opacity:0.15;}
	.st28{opacity:0.13;}
	.st29{fill:none;stroke:#FFFFFF;stroke-width:2;stroke-linecap:round;stroke-miterlimit:10;}
	.st30{fill:#0F2F56;}
	.st31{fill:none;stroke:#3F3D56;stroke-linecap:round;stroke-miterlimit:10;}
	.st32{fill:none;stroke:#1BA9E3;stroke-width:2;stroke-linecap:round;stroke-miterlimit:10;}
	.st33{fill:#FAC1B6;}
	.st34{fill:#F3B9B0;}
	.st35{fill:#FBB3A8;}
	.st36{fill:#F7D5C4;}
	.st37{opacity:0.3;clip-path:url(#SVGID_2_);fill:#81AB4B;}
	.st38{clip-path:url(#SVGID_4_);}
	.st39{opacity:0.3;fill:#95BD63;}
	.st40{opacity:0.3;clip-path:url(#SVGID_6_);fill:#81AB4B;}
	.st41{opacity:0.3;clip-path:url(#SVGID_8_);fill:#81AB4B;}
	.st42{fill:#7FB553;}
	.st43{fill:#6DA032;}
	.st44{fill:#CBD65E;}
	.st45{fill:#96BB51;}
	.st46{fill:#ABC557;}
	.st47{opacity:0.5;fill:#FFFFFF;}
	.st48{fill:#85A343;}
	.st49{fill:#B1A393;}
	.st50{fill:#EDD5BF;}
	.st51{fill:#E05B36;}
	.st52{fill:#EE762C;}
	.st53{fill:#E1A978;}
	.st54{fill:#604C47;}
	.st55{fill:#A17F65;}
	.st56{fill:#6CAF51;}
	.st57{fill:#297602;}
	.st58{fill:#297000;}
	.st59{fill:#388409;}
	.st60{fill:#F04E41;}
	.st61{fill:#F04E40;}
	.st62{fill:#F3735C;}
	.st63{fill:#417602;}
	.st64{fill:#417000;}
	.st65{fill:#528409;}
	.st66{fill:#FF4F77;}
	.st67{fill:#FF6086;}
	.st68{fill:#FF7596;}
	.st69{fill:#FF3D6B;}
	.st70{fill:#EE292E;}
	.st71{fill:#7EA61F;}
	.st72{fill:#68990A;}
	.st73{fill:#56860C;}
	.st74{fill:#FFDD60;}
	.st75{fill:#FFCB4E;}
	.st76{fill:#ECAE01;}
	.st77{fill:#F68E21;}
	.st78{fill:#FDD152;}
	.st79{fill:none;}
	.st80{fill:#E0E69E;}
	.st81{opacity:0.23;}
	.st82{fill:#A4DDF4;}
	.st83{opacity:0.25;fill:#FFFFFF;}
	.st84{opacity:0.44;fill:#FFFFFF;}
</style>
<g>
	<circle class="st2" cx="102.8" cy="101.1" r="71.7"/>
	<path class="st11" d="M157.1,52.3c-0.3,0-0.7-0.1-1-0.1c0,0,0,0,0,0c-11.9-0.9-24.2-0.5-35.7,2.7c-1,0.3-2,0.6-3,0.9
		C103.2,60.5,91.4,71,82.8,83.4c-8.3,1.9-16.2,5.6-23,10.7c-8.2,6.1-14.7,14.4-18.9,23.7c5.9,0.6,19.4,2,24.3,2.5h0
		c-1.7,4.9-3.3,9.8-4.9,14.8c1.5,1.5,3.6,3.6,5.2,5.2c0.6,0.6,1.2,1.2,1.5,1.5c0,0,0,0,0.1,0.1c0.1,0.1,0.1,0.1,0.1,0.1
		c0,0,0,0,0.1,0.1s0,0,0.1,0.1c0.1,0.1,0.1,0.1,0.2,0.2c0.4,0.4,1,1,1.7,1.7c1.5,1.5,3.6,3.5,5,5h0l0,0c4.9-1.6,9.9-3.1,14.7-4.8
		c0.4,3.9,1.3,13.1,2,19.7c0.2,1.8,0.3,3.3,0.5,4.6c0,0,0,0,0,0c8.2-3.6,15.5-9.1,21.3-15.9c0.8-1,1.6-2,2.4-3
		c1.3-1.7,2.5-3.5,3.6-5.3c2.7-4.6,4.9-9.5,6.3-14.6c0.3-1,0.6-2.1,0.8-3.1c6.2-4.3,11.9-9.4,16.6-15.1c2.4-2.9,4.5-5.9,6.4-9.1
		c1.8-3.2,3.4-6.6,4.6-10.1c0.3-1,0.7-2.1,1-3.1c0.8-3,1.4-6,1.9-9c0.2-1.5,0.4-3.1,0.6-4.6c0.5-4.6,0.7-9.3,0.6-13.9
		C157.5,58.4,157.4,55.4,157.1,52.3z"/>
	<path class="st7" d="M158.3,44.1c1,12.2,0.6,24.9-2.6,36.7c-0.3,1.1-0.6,2.1-1,3.1l-36.2-36.4c1-0.3,2-0.6,3-0.9
		C133.4,43.5,146.1,43.1,158.3,44.1z"/>
	<circle class="st3" cx="115.4" cy="86.8" r="10.2"/>
	<path class="st11" d="M125.5,86.8c0,5.6-4.5,10.2-10.2,10.2c-3.8,0-7.1-2.1-8.9-5.2c1.7,1.2,3.7,1.9,5.9,1.9
		c5.6,0,10.2-4.5,10.2-10.2c0-1.8-0.5-3.5-1.3-5C123.9,80.3,125.5,83.4,125.5,86.8z"/>
	<path class="st3" d="M84,75.2c-0.9,1.3-1.8,2.6-2.6,4c-6.4,10.2-11,21.4-14.9,32.9h0c-4.9-0.5-18.4-1.9-24.3-2.5
		C46.3,100.3,52.8,92,61,85.9C67.8,80.8,75.7,77.1,84,75.2z"/>
	<path class="st3" d="M123.1,121c1.3-0.8,2.7-1.7,4-2.6c-1.9,8.3-5.6,16.2-10.7,23c-6.1,8.1-14.4,14.7-23.7,18.8
		c-0.6-5.9-2-19.4-2.5-24.3C101.7,132,112.9,127.4,123.1,121z"/>
	<path class="st11" d="M127.1,118.4c-1.9,8.3-5.6,16.2-10.7,23c-6.1,8.1-14.4,14.7-23.7,18.8c-0.2-1.8-0.4-4.3-0.7-7
		c8.2-4.1,15.5-10.2,21-17.5c3.1-4,5.6-8.4,7.5-13.1c0.9-0.5,1.8-1,2.6-1.6C124.5,120.2,125.8,119.3,127.1,118.4z"/>
	<path class="st4" d="M118.6,47.6L154.7,84c-4.8,14.1-15.3,25.8-27.6,34.4c-1.3,0.9-2.6,1.8-4,2.6c-10.2,6.4-21.4,10.9-32.9,14.9
		c-4.9,1.7-9.8,3.3-14.7,4.8c-2.1-2.1-5.5-5.4-6.7-6.7c-0.1-0.1-0.1-0.1-0.2-0.2c0,0-0.1-0.1-0.1-0.1c0,0-0.1-0.1-0.1-0.1
		c0,0,0-0.1-0.1-0.1c-1.3-1.3-4.6-4.6-6.7-6.7c1.6-4.9,3.2-9.9,4.9-14.8c4-11.5,8.5-22.7,14.9-32.9c0.8-1.3,1.7-2.7,2.6-4
		C92.6,62.8,104.4,52.3,118.6,47.6z M125.5,86.8c0-5.6-4.5-10.2-10.2-10.2c-5.6,0-10.2,4.5-10.2,10.2c0,5.6,4.5,10.2,10.2,10.2
		C121,96.9,125.5,92.4,125.5,86.8z"/>
	<path class="st12" d="M155.7,80.9c-0.3,1.1-0.6,2.1-1,3.1l-4.5-4.6c1.2-2.3,2.2-4.7,3-7.2c0.3-1,0.7-2.1,1-3.1
		c2.2-8.1,3.1-16.6,3.1-25.1c0.3,0,0.7,0.1,1,0.1C159.3,56.4,158.9,69.1,155.7,80.9z"/>
	<path class="st12" d="M150.2,79.5c-5.5,10.9-14.4,20.1-24.6,27.2c-1.3,0.9-2.6,1.8-4,2.6c-10.2,6.4-28.5,14-40,18
		c-4.9,1.7-9.8,3.3-14.7,4.8c-0.1-0.1-0.1-0.2-0.2-0.3c0,0.1,0,0.1-0.1,0.2c0.6,0.6,1.2,1.2,1.5,1.6c0,0,0,0,0.1,0.1
		c0.1,0.1,0.1,0.1,0.1,0.1c0.1,0.1,0.1,0.1,0.1,0.1c0.1,0.1,0.1,0.1,0.2,0.2c1.2,1.2,4.6,4.6,6.7,6.7c4.9-1.6,9.9-3.1,14.7-4.8
		c11.5-4,22.7-8.5,32.9-14.9c1.3-0.8,2.7-1.7,4-2.6c12.4-8.6,22.8-20.3,27.6-34.4L150.2,79.5z"/>
	<path class="st13" d="M84,75.2c-8.3,1.9-16.2,5.6-23,10.7c-8.2,6.1-14.7,14.4-18.9,23.7c5.9,0.6,19.4,2,24.3,2.5"/>
	<path class="st13" d="M68.3,133.6c0.1,0.1,0.1,0.1,0.1,0.1"/>
	<path class="st13" d="M90.2,135.9c0.5,4.9,1.9,18.4,2.5,24.3c9.3-4.2,17.6-10.7,23.7-18.8c5.1-6.8,8.8-14.7,10.7-23"/>
	<line class="st13" x1="118.6" y1="47.6" x2="154.7" y2="84"/>
	<circle class="st13" cx="115.4" cy="86.8" r="10.2"/>
	<line class="st14" x1="38.6" y1="155" x2="51.8" y2="140.4"/>
	<line class="st14" x1="52.6" y1="168.3" x2="65.9" y2="153.7"/>
	<line class="st14" x1="59.3" y1="146.9" x2="39.9" y2="167.2"/>
	<path class="st13" d="M68.2,133.6C68.2,133.6,68.2,133.6,68.2,133.6c0.1,0.1,0.1,0.1,0.2,0.2c0.1,0.1,0.1,0.1,0.1,0.1
		c0.1,0.1,0.1,0.1,0.2,0.2c1.2,1.2,4.6,4.6,6.7,6.7c4.9-1.6,9.9-3.1,14.7-4.8c11.5-4,22.7-8.5,32.9-14.9c1.3-0.8,2.7-1.7,4-2.6
		c12.4-8.6,22.8-20.3,27.6-34.4c0.3-1,0.7-2.1,1-3.1c3.2-11.8,3.6-24.5,2.6-36.7c-12.2-1-24.9-0.6-36.7,2.6c-1,0.3-2,0.6-3,0.9
		C104.4,52.3,92.6,62.8,84,75.2c-0.9,1.3-1.8,2.6-2.6,4c-6.4,10.2-11,21.4-14.9,32.9c-1.7,4.9-3.3,9.8-4.9,14.8
		C63.6,128.9,67,132.3,68.2,133.6"/>
</g>
</svg>
