<?xml version="1.0" encoding="utf-8"?>
<!-- Generator: Adobe Illustrator 22.0.1, SVG Export Plug-In . SVG Version: 6.00 Build 0)  -->
<svg version="1.1" id="Layer_1" xmlns="http://www.w3.org/2000/svg" xmlns:xlink="http://www.w3.org/1999/xlink" x="0px" y="0px"
	 viewBox="0 0 200 200" style="enable-background:new 0 0 200 200;" xml:space="preserve">
<style type="text/css">
	.st0{fill:#7AC943;}
	.st1{fill:#467229;}
	.st2{fill:#D8EAF9;}
	.st3{fill:#FFFFFF;}
	.st4{fill:#1BA9E3;}
	.st5{fill:#CE3028;}
	.st6{fill:#F3AD89;}
	.st7{fill:#7854FC;}
	.st8{fill:#49BAE9;}
	.st9{fill:#3F3D56;}
	.st10{fill:none;stroke:#3F3D56;stroke-width:2;stroke-miterlimit:10;}
	.st11{opacity:0.15;fill:#3F3D56;}
	.st12{opacity:0.26;fill:#FFFFFF;}
	.st13{fill:none;stroke:#3F3D56;stroke-width:2;stroke-linecap:round;stroke-miterlimit:10;}
	.st14{fill:none;stroke:#1BA9E3;stroke-width:3.5;stroke-linecap:round;stroke-miterlimit:10;}
	.st15{opacity:0.5;fill:#1BA9E3;}
	.st16{opacity:0.34;fill:#FFFFFF;}
	.st17{opacity:0.64;fill:#FFFFFF;}
	.st18{opacity:0.56;fill:#FFFFFF;}
	.st19{opacity:0.7;fill:#FFFFFF;}
	.st20{opacity:0.65;fill:#FFFFFF;}
	.st21{fill:none;stroke:#FFFFFF;stroke-width:1.5;stroke-linecap:round;stroke-miterlimit:10;}
	.st22{fill:none;stroke:#3F3D56;stroke-width:2;stroke-linecap:round;stroke-linejoin:round;stroke-miterlimit:10;}
	.st23{fill:#F19377;}
	.st24{fill:#E9EDF2;}
	.st25{opacity:0.4;fill:#50719B;}
	.st26{fill:#50719B;}
	.st27{opacity:0.15;}
	.st28{opacity:0.13;}
	.st29{fill:none;stroke:#FFFFFF;stroke-width:2;stroke-linecap:round;stroke-miterlimit:10;}
	.st30{fill:#0F2F56;}
	.st31{fill:none;stroke:#3F3D56;stroke-linecap:round;stroke-miterlimit:10;}
	.st32{fill:none;stroke:#1BA9E3;stroke-width:2;stroke-linecap:round;stroke-miterlimit:10;}
	.st33{fill:#FAC1B6;}
	.st34{fill:#F3B9B0;}
	.st35{fill:#FBB3A8;}
	.st36{fill:#F7D5C4;}
	.st37{opacity:0.3;clip-path:url(#SVGID_2_);fill:#81AB4B;}
	.st38{clip-path:url(#SVGID_4_);}
	.st39{opacity:0.3;fill:#95BD63;}
	.st40{opacity:0.3;clip-path:url(#SVGID_6_);fill:#81AB4B;}
	.st41{opacity:0.3;clip-path:url(#SVGID_8_);fill:#81AB4B;}
	.st42{fill:#7FB553;}
	.st43{fill:#6DA032;}
	.st44{fill:#CBD65E;}
	.st45{fill:#96BB51;}
	.st46{fill:#ABC557;}
	.st47{opacity:0.5;fill:#FFFFFF;}
	.st48{fill:#85A343;}
	.st49{fill:#B1A393;}
	.st50{fill:#EDD5BF;}
	.st51{fill:#E05B36;}
	.st52{fill:#EE762C;}
	.st53{fill:#E1A978;}
	.st54{fill:#604C47;}
	.st55{fill:#A17F65;}
	.st56{fill:#6CAF51;}
	.st57{fill:#297602;}
	.st58{fill:#297000;}
	.st59{fill:#388409;}
	.st60{fill:#F04E41;}
	.st61{fill:#F04E40;}
	.st62{fill:#F3735C;}
	.st63{fill:#417602;}
	.st64{fill:#417000;}
	.st65{fill:#528409;}
	.st66{fill:#FF4F77;}
	.st67{fill:#FF6086;}
	.st68{fill:#FF7596;}
	.st69{fill:#FF3D6B;}
	.st70{fill:#EE292E;}
	.st71{fill:#7EA61F;}
	.st72{fill:#68990A;}
	.st73{fill:#56860C;}
	.st74{fill:#FFDD60;}
	.st75{fill:#FFCB4E;}
	.st76{fill:#ECAE01;}
	.st77{fill:#F68E21;}
	.st78{fill:#FDD152;}
	.st79{fill:none;}
	.st80{fill:#E0E69E;}
	.st81{opacity:0.23;}
	.st82{fill:#A4DDF4;}
	.st83{opacity:0.25;fill:#FFFFFF;}
	.st84{opacity:0.44;fill:#FFFFFF;}
</style>
<g>
	<path class="st2" d="M174.2,99.9c0,38.2-28.9,69.7-66.1,73.8c-1.3,0.2-2.7,0.3-4,0.3c-1.4,0.1-2.7,0.1-4.1,0.1
		c-18.6,0-35.6-6.8-48.6-18.2c-15.2-13.2-24.9-32.4-25.5-54c0-0.6,0-1.2,0-1.8c0-0.5,0-0.9,0-1.4c0-0.9,0-1.7,0.1-2.6
		c0.1-2.8,0.4-5.6,0.9-8.4c5.8-35.2,36.3-62.1,73.2-62.1C141,25.7,174.2,58.9,174.2,99.9z"/>
	<path class="st80" d="M83.8,127.4c-0.7,1.5-2.6,1.8-4.3,1.9c-1.8,0.1-3.6,0.2-5.1,1.1c-1.5,0.9-2.6,2.7-2.1,4.4
		c0.5,1.4,1.9,2.3,3.4,2.7c1.4,0.5,3,0.7,4.3,1.5c1.3,0.8,2.2,2.5,1.6,3.8c-0.7,1.3-2.4,1.7-3.8,1.8c-4.7,0.6-9.5,1.3-14,3
		c-1.8,0.7-3.6,1.5-5.3,2.4c-1.1,0.6-2.2,1.4-3.3,2.2c-1.2,0.9-2.3,2-3.3,3.1c-0.2,0.2-0.4,0.5-0.6,0.7c-1.4-1.2-2.8-2.5-4.1-3.8
		s-2.6-2.7-3.8-4.1c-11-12.9-17.6-29.7-17.6-48c0-1.8,0.1-3.5,0.2-5.3c7.1,3.4,13.8,7.8,20.4,12.2c1.1,0.7,2.2,1.4,3.3,2.1
		c8.7,5.6,17.8,10.8,27.8,13.3c1.5-0.1,3.2,0.6,4.6,1.3C83.4,124.4,84.4,126,83.8,127.4z"/>
	<path class="st0" d="M58.4,150.1c-1.1,0.6-2.2,1.4-3.3,2.2h-7.9c-1.3-1.3-2.6-2.7-3.8-4.1c0.3-0.2,0.5-0.4,0.9-0.4
		c0.7-0.2,1.5,0,2,0.6c0.4-1.2,1.4-2,2.6-2.2c1.2-0.2,2.4,0.3,3.2,1.2c0.8-0.7,2-0.7,2.9-0.2c0.9,0.5,1.5,1.6,1.4,2.7
		C57.1,149.6,57.8,149.7,58.4,150.1z"/>
	<path class="st2" d="M172.9,86.2c0.9,4.5,1.3,9.2,1.3,13.9c0,37.5-27.9,68.6-64.1,73.5c0.5-2.3,0.4-4.6,0.9-6.9
		c0.8-3.3,3-6.1,5.8-8c2.8-1.9,6.2-2.8,9.5-3c2.3-0.1,4.6,0,6.9-0.2c2.3-0.2,4.6-0.8,6.4-2.3c1.7-1.5,2.7-4.1,1.8-6.2
		c-0.6-1.6-2.1-2.7-3.6-3.6c-10.3-6.3-22.9-7.4-34.9-6.7c-1.5,0.1-3.4-0.1-3.8-1.6c-0.2-0.8,0.3-1.7,1-2.2c0.7-0.5,1.6-0.6,2.4-0.8
		c5.3-1,10.7-2.1,16-3.1c1.3-0.3,2.7-0.5,3.8-1.4c1.1-0.8,1.8-2.3,1.2-3.6c-0.6-1.4-2.4-1.7-3.9-1.9c-10.7-1.1-21.5-1.6-32.3-1.3
		l0-2.3c6.5-1.6,11.1-7.3,16.8-10.9c8.3-5.3,18.6-5.9,28-8.4c8.1-2.1,15.7-5.6,23.5-8.5C161.2,88.6,167,86.9,172.9,86.2z"/>
	<path class="st0" d="M125.9,123.9c-0.1-1.9,0.1-3.8,0.9-5.5c0.8-1.7,2.1-3.1,3.8-3.6c1.6-0.5,3.5,0.1,4.6,1.6
		c0.9-2.9,3.4-4.9,6.1-5.4c2.7-0.5,5.6,0.7,7.3,3c1.9-1.7,4.7-1.8,6.8-0.5c2.1,1.3,3.5,4,3.3,6.7c1.6-0.8,3.5-0.5,4.9,0.7
		c1.4,1.2,2.2,3.2,2,5.1c-0.4,0-0.9,0-1.3,0h-37.9C126.3,125.2,126,124.6,125.9,123.9z"/>
	<path class="st0" d="M59.4,135.1c0-0.6,0-1.3,0.3-1.9c0.3-0.6,0.8-1,1.4-1.2c0.6-0.2,1.3,0,1.7,0.5c0.3-1,1.2-1.7,2.2-1.8
		c1-0.2,2,0.2,2.6,1c0.7-0.6,1.7-0.6,2.5-0.2s1.3,1.4,1.2,2.3c0.6-0.3,1.3-0.2,1.8,0.2c0.5,0.4,0.8,1.1,0.7,1.7c-0.2,0-0.3,0-0.5,0
		H59.6C59.5,135.6,59.4,135.4,59.4,135.1z"/>
	<g class="st81">
		<line class="st13" x1="58.5" y1="107.6" x2="58.5" y2="73"/>
		<path class="st9" d="M58.7,56.7c0,0,0-0.1,0-0.1c0-0.5-0.9-0.6-1-0.1c0,0,0,0,0,0c0,0,0,0,0,0.1c0,3.8-2.4,6.9-6.1,8.9
			c-0.6,0.3-0.1,1,0.5,0.8c1.2-0.4,2.4-0.8,3.5-1.3c-0.4,1.9-2.4,4.4-4.5,5.3c-0.3,0.1-0.5,0.2-0.8,0.3c-0.6,0.2-0.4,1,0.3,0.8
			c0.3-0.1,0.7-0.2,1-0.4c1.4-0.5,2.7-1.1,3.9-1.8c-1.2,2.8-3.7,4.8-6.5,6.6c-0.4,0.2-0.3,0.8,0.3,0.8c1.5,0,2.7-1.1,3.8-1.8
			c1.6-1.1,3.3-2.1,5.1-2.9c0.3,0,0.7-0.2,0.6-0.5c-0.3-1,0.1-2.2,0.1-3.3c0-1.2,0.1-2.5,0.1-3.7C59.2,61.8,59,59.3,58.7,56.7z"/>
		<path class="st9" d="M57.5,64.4c0,1.2,0.2,2.5,0.1,3.7c0,1,0.4,2.3,0.1,3.3c-0.1,0.4,0.3,0.6,0.6,0.5c1.8,0.8,3.4,1.9,5.1,2.9
			c1.1,0.7,2.3,1.8,3.8,1.8c0.6,0,0.6-0.6,0.3-0.8C64.7,74,62.2,72,61,69.2c1.2,0.7,2.5,1.3,3.9,1.8c0.3,0.2,0.7,0.3,1,0.4
			c0.7,0.1,0.9-0.7,0.3-0.8c-0.3-0.1-0.5-0.2-0.8-0.3c-2.1-0.9-4.1-3.4-4.5-5.3c1.2,0.4,2.4,0.8,3.5,1.3c0.6,0.2,1.1-0.5,0.5-0.8
			c-3.8-1.9-6.2-5.1-6.1-8.9c0,0,0,0,0-0.1c0,0,0,0,0,0c-0.1-0.5-1-0.5-1,0.1c0,0,0,0.1,0,0.1C57.5,59.3,57.4,61.8,57.5,64.4z"/>
		<path class="st9" d="M58.8,68.9c0-0.1,0-0.1,0-0.2c0-0.7-1.2-0.7-1.3-0.1c0,0,0,0,0,0c0,0,0,0,0,0.1c0.1,4.8-3,8.8-7.8,11.3
			c-0.8,0.4-0.1,1.2,0.7,1c1.5-0.5,3-1.1,4.5-1.6c-0.5,2.4-3.1,5.6-5.7,6.8c-0.3,0.1-0.6,0.2-1,0.3c-0.8,0.2-0.5,1.3,0.4,1.1
			c0.4-0.1,0.9-0.3,1.3-0.5c1.8-0.6,3.4-1.4,5-2.3c-1.6,3.5-4.8,6.2-8.3,8.5c-0.5,0.3-0.4,1,0.3,1c1.9,0,3.4-1.4,4.9-2.3
			c2.1-1.4,4.2-2.7,6.5-3.8c0.4,0,0.9-0.2,0.8-0.7c-0.3-1.3,0.2-2.8,0.2-4.2c0-1.6,0.1-3.2,0.2-4.7C59.4,75.4,59.2,72.2,58.8,68.9z"
			/>
		<path class="st9" d="M57.7,78.7c0,1.6,0.2,3.2,0.2,4.7c0,1.3,0.5,2.9,0.2,4.2c-0.1,0.5,0.4,0.7,0.8,0.7c2.3,1.1,4.4,2.4,6.5,3.8
			c1.5,1,2.9,2.3,4.9,2.3c0.7,0,0.8-0.7,0.3-1c-3.6-2.3-6.8-4.9-8.3-8.5c1.6,0.9,3.2,1.7,5,2.3c0.4,0.2,0.9,0.4,1.3,0.5
			c0.8,0.2,1.1-0.8,0.4-1.1c-0.3-0.1-0.7-0.2-1-0.3c-2.6-1.2-5.2-4.4-5.7-6.8c1.5,0.5,3,1.1,4.5,1.6c0.8,0.3,1.4-0.6,0.7-1
			c-4.8-2.5-7.9-6.5-7.8-11.3c0,0,0,0,0-0.1c0,0,0,0,0,0c-0.1-0.6-1.3-0.6-1.3,0.1c0,0.1,0,0.1,0,0.2C57.8,72.2,57.6,75.4,57.7,78.7
			z"/>
	</g>
	<g class="st81">
		<line class="st13" x1="77.7" y1="88" x2="77.7" y2="70.5"/>
		<path class="st9" d="M77.8,62.2C77.8,62.1,77.8,62.1,77.8,62.2c0-0.3-0.5-0.3-0.5-0.1c0,0,0,0,0,0c0,0,0,0,0,0
			c0,1.9-1.2,3.5-3.1,4.5c-0.3,0.2,0,0.5,0.3,0.4c0.6-0.2,1.2-0.4,1.8-0.6c-0.2,1-1.2,2.2-2.3,2.7c-0.1,0-0.3,0.1-0.4,0.1
			c-0.3,0.1-0.2,0.5,0.1,0.4c0.2,0,0.4-0.1,0.5-0.2c0.7-0.2,1.4-0.6,2-0.9c-0.6,1.4-1.9,2.5-3.3,3.4c-0.2,0.1-0.2,0.4,0.1,0.4
			c0.8,0,1.3-0.5,1.9-0.9c0.8-0.5,1.7-1.1,2.6-1.5c0.2,0,0.4-0.1,0.3-0.3c-0.1-0.5,0.1-1.1,0.1-1.7c0-0.6,0.1-1.3,0.1-1.9
			C78,64.7,77.9,63.4,77.8,62.2z"/>
		<path class="st9" d="M77.2,66c0,0.6,0.1,1.3,0.1,1.9c0,0.5,0.2,1.2,0.1,1.7c0,0.2,0.1,0.3,0.3,0.3c0.9,0.4,1.7,1,2.6,1.5
			c0.6,0.4,1.2,0.9,1.9,0.9c0.3,0,0.3-0.3,0.1-0.4c-1.4-0.9-2.7-2-3.3-3.4c0.6,0.4,1.3,0.7,2,0.9c0.2,0.1,0.4,0.1,0.5,0.2
			c0.3,0.1,0.5-0.3,0.1-0.4c-0.1,0-0.3-0.1-0.4-0.1c-1.1-0.5-2.1-1.7-2.3-2.7c0.6,0.2,1.2,0.4,1.8,0.6c0.3,0.1,0.6-0.2,0.3-0.4
			c-1.9-1-3.1-2.6-3.1-4.5c0,0,0,0,0,0c0,0,0,0,0,0c0-0.2-0.5-0.2-0.5,0c0,0,0,0,0,0.1C77.2,63.4,77.1,64.7,77.2,66z"/>
		<path class="st9" d="M77.8,68.3C77.8,68.3,77.8,68.3,77.8,68.3c0-0.4-0.6-0.4-0.7-0.1c0,0,0,0,0,0c0,0,0,0,0,0
			c0,2.4-1.5,4.5-4,5.7c-0.4,0.2,0,0.6,0.3,0.5c0.8-0.3,1.5-0.6,2.3-0.8c-0.3,1.2-1.6,2.9-2.9,3.4c-0.2,0.1-0.3,0.1-0.5,0.2
			c-0.4,0.1-0.2,0.6,0.2,0.5c0.2,0,0.4-0.1,0.7-0.2c0.9-0.3,1.8-0.7,2.6-1.2c-0.8,1.8-2.4,3.1-4.2,4.3c-0.2,0.2-0.2,0.5,0.2,0.5
			c1,0,1.7-0.7,2.5-1.2c1.1-0.7,2.1-1.4,3.3-1.9c0.2,0,0.5-0.1,0.4-0.4c-0.2-0.6,0.1-1.4,0.1-2.1c0-0.8,0.1-1.6,0.1-2.4
			C78.1,71.6,78,70,77.8,68.3z"/>
		<path class="st9" d="M77.3,73.3c0,0.8,0.1,1.6,0.1,2.4c0,0.7,0.2,1.5,0.1,2.1c-0.1,0.2,0.2,0.4,0.4,0.4c1.2,0.5,2.2,1.2,3.3,1.9
			c0.7,0.5,1.5,1.2,2.5,1.2c0.4,0,0.4-0.4,0.2-0.5c-1.8-1.2-3.4-2.5-4.2-4.3c0.8,0.5,1.6,0.9,2.6,1.2c0.2,0.1,0.4,0.2,0.7,0.2
			c0.4,0.1,0.6-0.4,0.2-0.5c-0.2-0.1-0.3-0.1-0.5-0.2c-1.3-0.6-2.7-2.2-2.9-3.4c0.8,0.3,1.5,0.6,2.3,0.8c0.4,0.1,0.7-0.3,0.3-0.5
			c-2.4-1.2-4-3.3-4-5.7c0,0,0,0,0,0c0,0,0,0,0,0c-0.1-0.3-0.7-0.3-0.7,0c0,0,0,0.1,0,0.1C77.3,70,77.2,71.6,77.3,73.3z"/>
	</g>
	<g class="st81">
		<line class="st13" x1="119.3" y1="77.7" x2="119.3" y2="60.1"/>
		<path class="st9" d="M119.4,51.8C119.4,51.8,119.4,51.8,119.4,51.8c0-0.3-0.5-0.3-0.5-0.1c0,0,0,0,0,0c0,0,0,0,0,0
			c0,1.9-1.2,3.5-3.1,4.5c-0.3,0.2,0,0.5,0.3,0.4c0.6-0.2,1.2-0.4,1.8-0.6c-0.2,1-1.2,2.2-2.3,2.7c-0.1,0-0.3,0.1-0.4,0.1
			c-0.3,0.1-0.2,0.5,0.1,0.4c0.2,0,0.4-0.1,0.5-0.2c0.7-0.2,1.4-0.6,2-0.9c-0.6,1.4-1.9,2.5-3.3,3.4c-0.2,0.1-0.2,0.4,0.1,0.4
			c0.8,0,1.3-0.5,1.9-0.9c0.8-0.5,1.7-1.1,2.6-1.5c0.2,0,0.4-0.1,0.3-0.3c-0.1-0.5,0.1-1.1,0.1-1.7c0-0.6,0.1-1.3,0.1-1.9
			C119.6,54.4,119.5,53.1,119.4,51.8z"/>
		<path class="st9" d="M118.7,55.7c0,0.6,0.1,1.3,0.1,1.9c0,0.5,0.2,1.2,0.1,1.7c0,0.2,0.1,0.3,0.3,0.3c0.9,0.4,1.7,1,2.6,1.5
			c0.6,0.4,1.2,0.9,1.9,0.9c0.3,0,0.3-0.3,0.1-0.4c-1.4-0.9-2.7-2-3.3-3.4c0.6,0.4,1.3,0.7,2,0.9c0.2,0.1,0.4,0.1,0.5,0.2
			c0.3,0.1,0.5-0.3,0.1-0.4c-0.1,0-0.3-0.1-0.4-0.1c-1.1-0.5-2.1-1.7-2.3-2.7c0.6,0.2,1.2,0.4,1.8,0.6c0.3,0.1,0.6-0.2,0.3-0.4
			c-1.9-1-3.1-2.6-3.1-4.5c0,0,0,0,0,0c0,0,0,0,0,0c0-0.2-0.5-0.2-0.5,0c0,0,0,0,0,0.1C118.8,53.1,118.7,54.4,118.7,55.7z"/>
		<path class="st9" d="M119.4,58C119.4,58,119.4,58,119.4,58c0-0.4-0.6-0.4-0.7-0.1c0,0,0,0,0,0c0,0,0,0,0,0c0,2.4-1.5,4.5-4,5.7
			c-0.4,0.2,0,0.6,0.3,0.5c0.8-0.3,1.5-0.6,2.3-0.8c-0.3,1.2-1.6,2.9-2.9,3.4c-0.2,0.1-0.3,0.1-0.5,0.2c-0.4,0.1-0.2,0.6,0.2,0.5
			c0.2,0,0.4-0.1,0.7-0.2c0.9-0.3,1.8-0.7,2.6-1.2c-0.8,1.8-2.4,3.1-4.2,4.3c-0.2,0.2-0.2,0.5,0.2,0.5c1,0,1.7-0.7,2.5-1.2
			c1.1-0.7,2.1-1.4,3.3-1.9c0.2,0,0.5-0.1,0.4-0.4c-0.2-0.6,0.1-1.4,0.1-2.1c0-0.8,0.1-1.6,0.1-2.4C119.7,61.3,119.6,59.7,119.4,58z
			"/>
		<path class="st9" d="M118.9,63c0,0.8,0.1,1.6,0.1,2.4c0,0.7,0.2,1.5,0.1,2.1c-0.1,0.2,0.2,0.4,0.4,0.4c1.2,0.5,2.2,1.2,3.3,1.9
			c0.7,0.5,1.5,1.2,2.5,1.2c0.4,0,0.4-0.4,0.2-0.5c-1.8-1.2-3.4-2.5-4.2-4.3c0.8,0.5,1.6,0.9,2.6,1.2c0.2,0.1,0.4,0.2,0.7,0.2
			c0.4,0.1,0.6-0.4,0.2-0.5c-0.2-0.1-0.3-0.1-0.5-0.2c-1.3-0.6-2.7-2.2-2.9-3.4c0.8,0.3,1.5,0.6,2.3,0.8c0.4,0.1,0.7-0.3,0.3-0.5
			c-2.4-1.2-4-3.3-4-5.7c0,0,0,0,0,0c0,0,0,0,0,0c-0.1-0.3-0.7-0.3-0.7,0c0,0,0,0.1,0,0.1C118.9,59.7,118.8,61.3,118.9,63z"/>
	</g>
	<g class="st81">
		<line class="st13" x1="132.5" y1="77.7" x2="132.5" y2="60.1"/>
		<path class="st9" d="M132.6,51.8C132.6,51.8,132.6,51.8,132.6,51.8c0-0.3-0.5-0.3-0.5-0.1c0,0,0,0,0,0c0,0,0,0,0,0
			c0,1.9-1.2,3.5-3.1,4.5c-0.3,0.2,0,0.5,0.3,0.4c0.6-0.2,1.2-0.4,1.8-0.6c-0.2,1-1.2,2.2-2.3,2.7c-0.1,0-0.3,0.1-0.4,0.1
			c-0.3,0.1-0.2,0.5,0.1,0.4c0.2,0,0.4-0.1,0.5-0.2c0.7-0.2,1.4-0.6,2-0.9c-0.6,1.4-1.9,2.5-3.3,3.4c-0.2,0.1-0.2,0.4,0.1,0.4
			c0.8,0,1.3-0.5,1.9-0.9c0.8-0.5,1.7-1.1,2.6-1.5c0.2,0,0.4-0.1,0.3-0.3c-0.1-0.5,0.1-1.1,0.1-1.7c0-0.6,0.1-1.3,0.1-1.9
			C132.8,54.4,132.7,53.1,132.6,51.8z"/>
		<path class="st9" d="M132,55.7c0,0.6,0.1,1.3,0.1,1.9c0,0.5,0.2,1.2,0.1,1.7c0,0.2,0.1,0.3,0.3,0.3c0.9,0.4,1.7,1,2.6,1.5
			c0.6,0.4,1.2,0.9,1.9,0.9c0.3,0,0.3-0.3,0.1-0.4c-1.4-0.9-2.7-2-3.3-3.4c0.6,0.4,1.3,0.7,2,0.9c0.2,0.1,0.4,0.1,0.5,0.2
			c0.3,0.1,0.5-0.3,0.1-0.4c-0.1,0-0.3-0.1-0.4-0.1c-1.1-0.5-2.1-1.7-2.3-2.7c0.6,0.2,1.2,0.4,1.8,0.6c0.3,0.1,0.6-0.2,0.3-0.4
			c-1.9-1-3.1-2.6-3.1-4.5c0,0,0,0,0,0c0,0,0,0,0,0c0-0.2-0.5-0.2-0.5,0c0,0,0,0,0,0.1C132,53.1,131.9,54.4,132,55.7z"/>
		<path class="st9" d="M132.6,58C132.6,58,132.6,58,132.6,58c0-0.4-0.6-0.4-0.7-0.1c0,0,0,0,0,0c0,0,0,0,0,0c0,2.4-1.5,4.5-4,5.7
			c-0.4,0.2,0,0.6,0.3,0.5c0.8-0.3,1.5-0.6,2.3-0.8c-0.3,1.2-1.6,2.9-2.9,3.4c-0.2,0.1-0.3,0.1-0.5,0.2c-0.4,0.1-0.2,0.6,0.2,0.5
			c0.2,0,0.4-0.1,0.7-0.2c0.9-0.3,1.8-0.7,2.6-1.2c-0.8,1.8-2.4,3.1-4.2,4.3c-0.2,0.2-0.2,0.5,0.2,0.5c1,0,1.7-0.7,2.5-1.2
			c1.1-0.7,2.1-1.4,3.3-1.9c0.2,0,0.5-0.1,0.4-0.4c-0.2-0.6,0.1-1.4,0.1-2.1c0-0.8,0.1-1.6,0.1-2.4C132.9,61.3,132.8,59.7,132.6,58z
			"/>
		<path class="st9" d="M132.1,63c0,0.8,0.1,1.6,0.1,2.4c0,0.7,0.2,1.5,0.1,2.1c-0.1,0.2,0.2,0.4,0.4,0.4c1.2,0.5,2.2,1.2,3.3,1.9
			c0.7,0.5,1.5,1.2,2.5,1.2c0.4,0,0.4-0.4,0.2-0.5c-1.8-1.2-3.4-2.5-4.2-4.3c0.8,0.5,1.6,0.9,2.6,1.2c0.2,0.1,0.4,0.2,0.7,0.2
			c0.4,0.1,0.6-0.4,0.2-0.5c-0.2-0.1-0.3-0.1-0.5-0.2c-1.3-0.6-2.7-2.2-2.9-3.4c0.8,0.3,1.5,0.6,2.3,0.8c0.4,0.1,0.7-0.3,0.3-0.5
			c-2.4-1.2-4-3.3-4-5.7c0,0,0,0,0,0c0,0,0,0,0,0c-0.1-0.3-0.7-0.3-0.7,0c0,0,0,0.1,0,0.1C132.1,59.7,132,61.3,132.1,63z"/>
	</g>
	<path class="st82" d="M115.2,77.1c10.4-6.2,20.5-12.9,30.3-20c3.2-2.3,6.7-4.8,10.6-5.2c0.1,0,0.1,0,0.2,0
		c8.2,9.6,14,21.4,16.5,34.3c-5.9,0.7-11.7,2.4-17.3,4.5c-7.8,2.9-15.4,6.4-23.5,8.5c-9.5,2.5-19.8,3.1-28,8.4
		c-5.7,3.6-10.2,9.4-16.8,10.9c-2.5,0.6-7.9,2.2-9.9,3.8c-10-2.5-19.1-7.7-27.8-13.3c-1.1-0.7-2.2-1.4-3.3-2.1l1-2.4
		c8.2-3.2,15.5-8.4,21.9-14.4c0.1-0.1,0.1-0.1,0.2-0.2c6.3-6,11.7-12.9,16.8-20c1.7-2.4,3.9-5,6.8-4.9c1.3,0.1,2.6,0.8,3.7,1.4
		C102.9,70.1,109.1,73.6,115.2,77.1z"/>
	<path class="st83" d="M158.8,54.6c-0.1,0.4-0.2,0.8-0.5,1.2c-1,1.6-2.8,2.5-4.5,3.3c-13.6,6.3-27.2,12.5-40.8,18.8l11.2-6.1
		c10-7.7,20.7-14.5,32-20.2L158.8,54.6z"/>
	<path class="st4" d="M87.4,120.9c10.8-0.3,21.6,0.2,32.3,1.3c1.5,0.2,3.3,0.5,3.9,1.9c0.6,1.2-0.1,2.7-1.2,3.6
		c-1.1,0.8-2.5,1.1-3.8,1.4c-5.3,1-10.7,2.1-16,3.1c-0.8,0.2-1.7,0.3-2.4,0.8c-0.7,0.5-1.2,1.4-1,2.2c0.3,1.4,2.3,1.6,3.8,1.6
		c12-0.7,24.6,0.5,34.9,6.7c1.5,0.9,2.9,2,3.6,3.6c0.9,2.1-0.1,4.7-1.8,6.2c-1.7,1.5-4.1,2.1-6.4,2.3c-2.3,0.2-4.6,0-6.9,0.2
		c-3.4,0.2-6.7,1.2-9.5,3c-2.8,1.9-5,4.7-5.8,8c-0.5,2.3-0.3,4.6-0.9,6.9c-0.7,0.1-1.3,0.2-2,0.3c-1.3,0.1-2.6,0.3-4,0.3
		c-1.4,0.1-2.7,0.1-4.1,0.1c-18.7,0-35.7-6.9-48.7-18.3c0.2-0.2,0.4-0.5,0.6-0.7c3.1-3.6,7.4-6.1,11.9-7.7s9.2-2.4,14-3
		c1.5-0.2,3.2-0.5,3.8-1.8c0.7-1.4-0.3-3-1.5-3.8c-1.3-0.8-2.8-1-4.3-1.5c-1.4-0.4-2.9-1.3-3.4-2.7c-0.5-1.7,0.6-3.5,2.1-4.4
		s3.3-1,5.1-1.1c1.7-0.1,3.6-0.4,4.3-1.9c0.6-1.4-0.4-3.1-1.8-3.7c-1.4-0.7-3.1-1.4-4.6-1.3c2-1.6,7.4-3.2,9.9-3.8L87.4,120.9z"/>
	<path class="st84" d="M126,139.4c1.7,0.6,3.4,1.3,4.6,2.6s1.9,3.3,1.2,4.9c-0.9,2.1-3.4,2.7-5.6,3.4c-5.1,1.6-9.8,4.5-13,8.8
		c-3.2,4.3-4.6,9.9-3.3,15.1c0.4-3.8,1.4-7.6,3.4-10.9s5.1-6,8.7-7.1c2.5-0.7,5.1-0.7,7.7-0.8c2.6-0.1,5.3-0.3,7.6-1.4
		s4.3-3.4,4.3-6c0-1.8-0.9-3.6-2.2-4.8c-1.3-1.3-2.9-2.2-4.6-2.9c-3.9-1.7-8.1-2.7-12.4-3.2c-2.1-0.3-4.2-0.5-6.4-0.6
		c-1.3-0.1-4.3-0.8-5.4,0.1C115.9,137,120.9,137.6,126,139.4z"/>
	<path class="st84" d="M112.6,124.8c0.2,1.4-1,2.7-2.2,3.3c-1.6,0.8-3.4,0.9-5.2,0.9c-1.8,0.1-3.6,0.2-5.2,0.9
		c-1.6,0.7-3,2.3-2.9,4.1s2.1,3.3,3.7,2.6c-0.9,0-1.5-0.9-1.5-1.8c0.1-0.9,0.7-1.6,1.4-2.1c0.7-0.4,1.6-0.6,2.4-0.8
		c5.5-1.2,10.9-2.4,16.4-3.6c0.9-0.2,1.8-0.4,2.6-0.9s1.4-1.3,1.5-2.2c0-1.1-0.8-2.1-1.8-2.5s-2.1-0.5-3.2-0.6
		c-1.4-0.1-2.8-0.2-4.2-0.3c-1.1-0.1-3.3-0.6-4.3-0.3c-1.5,0.5-0.1,0.7,0.7,1.2C111.7,123,112.6,123.8,112.6,124.8z"/>
	<path class="st83" d="M102.4,70.2c-0.6-1.3-2.1-1.9-3.5-1.8c-1.4,0.1-2.7,0.8-3.8,1.7c-5.6,4.3-7.9,11.6-12.3,17.1
		c-6.5,8.1-16.9,11.7-25.3,17.7c-1.4,1-2.7,2-4.2,2.7c-1.5,0.7-3.3,1.1-4.9,0.6c-1.5-0.5-2.8-1.7-3.3-3.2
		c17.3-6.6,31.2-20.1,42.1-35.1c0.9-1.3,1.9-2.6,3.3-3.4c1.7-0.9,3.9-0.8,5.7-0.1c1.8,0.7,3.4,1.9,5,3.1"/>
	<path class="st82" d="M69.2,89.7l0.3,0.3c-0.1,0.1-0.1,0.1-0.2,0.2c-6.4,6.1-13.7,11.2-21.9,14.4l-1,2.4
		c-6.6-4.3-13.3-8.7-20.4-12.2c0.2-2.2,0.4-4.3,0.7-6.4c4.3-2.4,8.3-5.3,12-8.7c1-0.9,2.1-2,3.5-2.1c1.1-0.1,2.1,0.4,3.1,0.8
		C53.3,82.2,61.2,85.9,69.2,89.7z"/>
	<path class="st13" d="M77.4,122.1c2-1.6,7.4-3.2,9.9-3.8c6.5-1.6,11.1-7.3,16.8-10.9c8.3-5.3,18.6-5.9,28-8.4
		c8.1-2.1,15.7-5.6,23.5-8.5c5-1.9,10.2-3.5,15.5-4.3"/>
	<path class="st13" d="M110,173.6c0-0.1,0-0.1,0.1-0.2c0,0,0,0,0,0c0.5-2.3,0.4-4.6,0.9-6.9c0.8-3.3,3-6.2,5.8-8
		c2.8-1.9,6.2-2.8,9.6-3c2.3-0.1,4.6,0,6.9-0.2c2.3-0.2,4.6-0.8,6.4-2.4c1.3-1.1,2.1-2.8,2.1-4.4c0-0.6-0.1-1.2-0.3-1.8
		c-0.6-1.6-2.1-2.7-3.6-3.6c-10.3-6.3-22.9-7.4-34.9-6.7c-1.5,0.1-3.4-0.1-3.8-1.6c0-0.1,0-0.2,0-0.2c-0.1-0.8,0.4-1.5,1-1.9
		c0.7-0.5,1.6-0.7,2.4-0.8c5.3-1,10.7-2.1,16-3.1c1.3-0.3,2.7-0.5,3.8-1.3c0.8-0.6,1.3-1.5,1.4-2.4c0-0.4,0-0.8-0.2-1.1
		c-0.7-1.4-2.4-1.7-3.9-1.9c-10.7-1.1-21.5-1.6-32.3-1.3c-0.2,0-0.4-1.4-0.5-1.4"/>
	<path class="st13" d="M77.4,122.1c0.1,0,0.2,0,0.3,0c1.4,0,3,0.7,4.3,1.3c1.1,0.6,2,1.8,1.9,3c0,0.3-0.1,0.5-0.2,0.7
		c-0.7,1.5-2.6,1.8-4.3,1.9c-1.7,0.1-3.6,0.2-5.1,1.1c-1.3,0.7-2.3,2.1-2.2,3.6c0,0.3,0.1,0.5,0.1,0.8c0.5,1.4,2,2.3,3.4,2.7
		c1.4,0.5,3,0.7,4.3,1.5c1,0.6,1.8,1.9,1.8,3c0,0.3-0.1,0.5-0.2,0.8c-0.6,1.3-2.4,1.7-3.8,1.8c-4.7,0.6-9.5,1.3-14,3
		c-4.5,1.6-8.7,4.1-11.9,7.7c-0.2,0.2-0.4,0.5-0.6,0.7c0,0.1-0.1,0.1-0.1,0.1"/>
	<path class="st83" d="M50.9,81.1C50.8,81.1,50.8,81,50.9,81.1c-0.4-0.3-0.7-0.4-1-0.5c-0.4-0.1-0.9-0.1-1.3,0
		c-0.9,0.1-1.8,0.6-2.5,1.1c-4.1,2.5-7.6,5.9-11.4,8.9c-2.3,1.8-4.7,3.6-7.3,4.9c-0.5,0.2-0.9,0.5-1.4,0.7c0,0,0,0,0,0
		c0.1-2.8,0.4-5.6,0.9-8.4c3.5-1.9,6.9-4.1,10.2-6.5c0.6-0.4,1.2-0.9,1.7-1.3c1.3-1,2.6-2,4.1-2.3c0.2,0,0.4,0,0.5,0
		c2.5-0.1,4.5,2,6.8,2.8L50.9,81.1L50.9,81.1z"/>
	<path class="st13" d="M28.2,87.3c3.8-2.2,7.3-4.9,10.6-7.9c1-0.9,2.1-2,3.5-2.1c1.1-0.1,2.1,0.4,3.1,0.8c8,3.7,15.9,7.5,23.9,11.2"
		/>
	<path class="st13" d="M47.4,104.3c8.2-3.2,15.5-8.4,21.9-14.4s11.9-13,17-20.1c1.7-2.4,3.9-5,6.8-4.9c1.3,0.1,2.6,0.8,3.7,1.4
		c8.6,4.9,9.7,5.8,17.9,10.5"/>
	<path class="st13" d="M154.9,51.9c-3.4,0.8-6.4,2.9-9.3,5c-9.8,7.1-20,13.7-30.3,20c-0.1,0.1-0.1,0.1-0.2,0.1c-1.6,1-3.3,2-5,2.9"
		/>
	<ellipse class="st3" cx="87.7" cy="162" rx="14.3" ry="0.9"/>
	<ellipse class="st3" cx="86.2" cy="158.7" rx="4.5" ry="0.7"/>
	<ellipse class="st3" cx="101.5" cy="158.8" rx="7" ry="0.6"/>
	<ellipse class="st3" cx="85.9" cy="135.3" rx="7.6" ry="0.5"/>
	<ellipse class="st3" cx="85.1" cy="133.5" rx="2.4" ry="0.4"/>
	<ellipse class="st3" cx="93.2" cy="133.6" rx="3.7" ry="0.3"/>
	<g>
		<g>
			<path class="st43" d="M141.8,126c-0.6,0-1-0.4-1-1V90.4c0-0.6,0.4-1,1-1s1,0.4,1,1V125C142.8,125.5,142.3,126,141.8,126z"/>
		</g>
		<g>
			<path class="st43" d="M142,74.1c0,0,0-0.1,0-0.1c0-0.5-0.9-0.6-1-0.1c0,0,0,0,0,0c0,0,0,0,0,0.1c0,3.8-2.4,6.9-6.1,8.9
				c-0.6,0.3-0.1,1,0.5,0.8c1.2-0.4,2.4-0.8,3.5-1.3c-0.4,1.9-2.4,4.4-4.5,5.3c-0.3,0.1-0.5,0.2-0.8,0.3c-0.6,0.2-0.4,1,0.3,0.8
				c0.3-0.1,0.7-0.2,1-0.4c1.4-0.5,2.7-1.1,3.9-1.8c-1.2,2.8-3.7,4.8-6.5,6.6c-0.4,0.2-0.3,0.8,0.3,0.8c1.5,0,2.7-1.1,3.8-1.8
				c1.6-1.1,3.3-2.1,5.1-2.9c0.3,0,0.7-0.2,0.6-0.5c-0.3-1,0.1-2.2,0.1-3.3c0-1.2,0.1-2.5,0.1-3.7C142.4,79.2,142.3,76.7,142,74.1z"
				/>
		</g>
		<g>
			<path class="st43" d="M140.7,81.7c0,1.2,0.2,2.5,0.1,3.7c0,1,0.4,2.3,0.1,3.3c-0.1,0.4,0.3,0.6,0.6,0.5c1.8,0.8,3.4,1.9,5.1,2.9
				c1.1,0.7,2.3,1.8,3.8,1.8c0.6,0,0.6-0.6,0.3-0.8c-2.8-1.8-5.3-3.8-6.5-6.6c1.2,0.7,2.5,1.3,3.9,1.8c0.3,0.2,0.7,0.3,1,0.4
				c0.7,0.1,0.9-0.7,0.3-0.8c-0.3-0.1-0.5-0.2-0.8-0.3c-2.1-0.9-4.1-3.4-4.5-5.3c1.2,0.4,2.4,0.8,3.5,1.3c0.6,0.2,1.1-0.5,0.5-0.8
				c-3.8-1.9-6.2-5.1-6.1-8.9c0,0,0,0,0-0.1c0,0,0,0,0,0c-0.1-0.5-1-0.5-1,0.1c0,0,0,0.1,0,0.1C140.8,76.7,140.6,79.2,140.7,81.7z"
				/>
		</g>
		<g>
			<path class="st43" d="M142,86.3c0-0.1,0-0.1,0-0.2c0-0.7-1.2-0.7-1.3-0.1c0,0,0,0,0,0c0,0,0,0,0,0.1c0.1,4.8-3,8.8-7.8,11.3
				c-0.8,0.4-0.1,1.2,0.7,1c1.5-0.5,3-1.1,4.5-1.6c-0.5,2.4-3.1,5.6-5.7,6.8c-0.3,0.1-0.6,0.2-1,0.3c-0.8,0.2-0.5,1.3,0.4,1.1
				c0.4-0.1,0.9-0.3,1.3-0.5c1.8-0.6,3.4-1.4,5-2.3c-1.6,3.5-4.8,6.2-8.3,8.5c-0.5,0.3-0.4,1,0.3,1c1.9,0,3.4-1.4,4.9-2.3
				c2.1-1.4,4.2-2.7,6.5-3.8c0.4,0,0.9-0.2,0.8-0.7c-0.3-1.3,0.2-2.8,0.2-4.2c0-1.6,0.1-3.2,0.2-4.7C142.6,92.8,142.4,89.5,142,86.3
				z"/>
		</g>
		<g>
			<path class="st43" d="M141,96c0,1.6,0.2,3.2,0.2,4.7c0,1.3,0.5,2.9,0.2,4.2c-0.1,0.5,0.4,0.7,0.8,0.7c2.3,1.1,4.4,2.4,6.5,3.8
				c1.5,1,2.9,2.3,4.9,2.3c0.7,0,0.8-0.7,0.3-1c-3.6-2.3-6.8-4.9-8.3-8.5c1.6,0.9,3.2,1.7,5,2.3c0.4,0.2,0.9,0.4,1.3,0.5
				c0.8,0.2,1.1-0.8,0.4-1.1c-0.3-0.1-0.7-0.2-1-0.3c-2.6-1.2-5.2-4.4-5.7-6.8c1.5,0.5,3,1.1,4.5,1.6c0.8,0.3,1.4-0.6,0.7-1
				c-4.8-2.5-7.9-6.5-7.8-11.3c0,0,0,0,0-0.1c0,0,0,0,0,0c-0.1-0.6-1.3-0.6-1.3,0.1c0,0.1,0,0.1,0,0.2C141.1,89.5,140.9,92.8,141,96
				z"/>
		</g>
	</g>
	<path class="st13" d="M77.4,122.1c-10-2.4-19.1-7.7-27.8-13.3c-1.1-0.7-2.1-1.4-3.2-2.1c-6.5-4.2-13-8.6-20-12"/>
	<g>
		<g>
			<path class="st64" d="M148.3,119.5c0,0.3,0,0.7,0.1,1c0,0.7,0.1,1.5,0.4,2.2c0.1,0.4,0.3,0.7,0.4,1.1c0.2,0.3,0.5,0.6,0.5,1
				c0-0.1,0.1-0.2,0.1-0.3c0-0.1,0-0.2,0.1-0.2c0.4-1.5-0.4-3.1-1.2-4.4C148.6,119.8,148.4,119.6,148.3,119.5z"/>
		</g>
		<g>
			<g>
				<g>
					<path class="st69" d="M148.5,118c0.2,0.6,0.6,0.5,0.9,0.4s0.6-0.3,0.4-0.9c-0.2-0.6-1.4-1.1-1.4-1.1S148.3,117.4,148.5,118z"/>
				</g>
				<g>
					<path class="st69" d="M149.8,117.7c0.1,0.6-0.3,0.7-0.7,0.8c-0.4,0-0.7,0-0.7-0.6c-0.1-0.6,0.8-1.6,0.8-1.6
						S149.8,117.1,149.8,117.7z"/>
				</g>
				<g>
					<path class="st66" d="M150.2,117.7c0.1,0.6-0.2,0.7-0.5,0.8c-0.3,0-0.5-0.1-0.5-0.6c-0.1-0.6,0.5-1.5,0.5-1.5
						S150.1,117.1,150.2,117.7z"/>
				</g>
				<g>
					<path class="st68" d="M148.3,118.1c0.2,0.6,0.5,0.5,0.8,0.5c0.2-0.1,0.4-0.3,0.2-0.8s-1.2-1.1-1.2-1.1S148.1,117.6,148.3,118.1
						z"/>
				</g>
				<g>
					<path class="st67" d="M148.6,117.9c0.1,0.6,0.4,0.6,0.8,0.5c0.4-0.1,0.6-0.2,0.5-0.8c-0.1-0.6-1-1.4-1-1.4
						S148.4,117.3,148.6,117.9z"/>
				</g>
			</g>
			<g>
				<path class="st63" d="M149.9,124.2c0.3-3.4-0.4-5.8-0.4-5.8l-0.2,0.1c0,0,0.6,2.4,0.3,5.8L149.9,124.2z"/>
			</g>
		</g>
		<g>
			<path class="st65" d="M151.2,119.5c0,0.3,0,0.7-0.1,1c0,0.7-0.2,1.5-0.4,2.2c-0.1,0.4-0.3,0.7-0.4,1.1c-0.2,0.3-0.5,0.6-0.5,1
				c0-0.1-0.1-0.2-0.1-0.3c0-0.1,0-0.2-0.1-0.2c-0.4-1.5,0.5-3.1,1.3-4.4C151,119.8,151.2,119.6,151.2,119.5z"/>
		</g>
	</g>
	<g>
		<g>
			<path class="st71" d="M152.3,124.9c0-4.8,0.2-6.8,0.2-6.8l0.2,0c0,0-0.2,2-0.2,6.8L152.3,124.9z"/>
		</g>
		<g>
			<g>
				<path class="st74" d="M153,117.2c0,0.4-0.2,0.6-0.5,0.6s-0.4-0.2-0.4-0.6c0-0.3,0.3-0.6,0.4-0.7c0,0,0.1,0,0.1,0
					C152.8,116.6,153,116.9,153,117.2z"/>
			</g>
			<g>
				<path class="st74" d="M152.9,118.5c-0.3-0.2-0.4-0.5-0.3-0.7s0.4-0.2,0.7-0.1c0.3,0.2,0.4,0.6,0.4,0.7c0,0,0,0.1,0,0.1
					C153.5,118.5,153.1,118.6,152.9,118.5z"/>
			</g>
			<g>
				<path class="st74" d="M151.8,117.7c0.3-0.2,0.6-0.1,0.7,0.1s0,0.5-0.3,0.7c-0.3,0.1-0.7,0-0.8,0c0,0,0,0,0-0.1
					C151.4,118.2,151.6,117.8,151.8,117.7z"/>
			</g>
			<g>
				<g>
					<path class="st75" d="M153.3,117.9c-0.3,0.2-0.6,0.1-0.7-0.1s0-0.5,0.3-0.7c0.3-0.1,0.7,0,0.8,0c0,0,0,0,0,0.1
						C153.7,117.3,153.6,117.7,153.3,117.9z"/>
				</g>
				<g>
					<path class="st75" d="M152.1,118.4c0-0.4,0.2-0.6,0.5-0.6s0.4,0.2,0.4,0.6c0,0.3-0.3,0.6-0.4,0.7c0,0-0.1,0-0.1,0
						C152.4,119,152.1,118.7,152.1,118.4z"/>
				</g>
				<g>
					<path class="st75" d="M152.3,117.1c0.3,0.2,0.4,0.5,0.3,0.7s-0.4,0.2-0.7,0.1c-0.3-0.2-0.4-0.6-0.4-0.7c0,0,0-0.1,0-0.1
						C151.6,117,152,116.9,152.3,117.1z"/>
				</g>
			</g>
			<g>
				<g>
					<polygon class="st78" points="153.1,117.8 152.7,118 152.4,117.6 152.8,117.3 					"/>
				</g>
				<g>
					<path class="st76" d="M152.8,117.8c0,0.1-0.1,0.3-0.2,0.3c-0.1,0-0.3-0.1-0.3-0.2c0-0.1,0.1-0.3,0.2-0.3
						C152.7,117.5,152.8,117.6,152.8,117.8z"/>
				</g>
				<g>
					<path class="st77" d="M153.5,117.5c0,0-0.1,0.1-0.1,0.1c0,0,0,0.1,0,0.1c0,0-0.1,0-0.1,0.1c0,0,0,0.1-0.1,0.1c0,0-0.1,0-0.1,0
						c0,0-0.1,0.1-0.1,0.1c0,0-0.1-0.1-0.1-0.1c0,0-0.1,0-0.1,0c0,0,0-0.1-0.1-0.1c0,0-0.1,0-0.1-0.1c0,0,0-0.1,0-0.1
						c0,0-0.1-0.1-0.1-0.1c0,0,0.1-0.1,0.1-0.1c0,0,0-0.1,0-0.1c0,0,0.1,0,0.1-0.1c0,0,0-0.1,0.1-0.1c0,0,0.1,0,0.1,0
						c0,0,0.1-0.1,0.1-0.1c0,0,0.1,0.1,0.1,0.1c0,0,0.1,0,0.1,0c0,0,0,0.1,0.1,0.1c0,0,0.1,0,0.1,0.1c0,0,0,0.1,0,0.1
						C153.4,117.4,153.5,117.5,153.5,117.5z"/>
				</g>
				<g>
					<path class="st78" d="M153.3,117.5c0,0.2-0.2,0.4-0.4,0.4s-0.4-0.2-0.4-0.4c0-0.2,0.2-0.4,0.4-0.4
						C153.2,117.1,153.3,117.3,153.3,117.5z"/>
				</g>
				<g>
					<circle class="st76" cx="153" cy="117.5" r="0.2"/>
				</g>
			</g>
		</g>
		<g>
			<path class="st73" d="M151.4,117.9c0.6,3.1,0.4,4.1,0.5,5.1c0.2,1,0.4,1.5,0.4,1.5l0.2,0c0,0,0-0.6-0.2-1.6
				C152.2,122,152.3,120.9,151.4,117.9z"/>
		</g>
		<g>
			<path class="st72" d="M153.8,117.8c-0.8,2-0.6,4.3-0.9,5.4c-0.2,1.1-0.5,1.8-0.5,1.8l-0.2,0c0,0,0-0.8,0.2-1.9
				C152.7,122,153,119.6,153.8,117.8z"/>
		</g>
	</g>
	<g>
		<g>
			<path class="st71" d="M147.5,124.8c-0.8-4.9-1-5.4-1-5.4l0.1-0.1c0,0,0.3,0.5,1,5.5L147.5,124.8z"/>
		</g>
		<g>
			<path class="st72" d="M146.4,120.5c0.7,1.2,0.4,2.2,0.7,3.3c0.2,0.9,0.3,1.1,0.3,1.1l0.2,0c0,0-0.2-0.2-0.3-1.1
				C147.2,122.8,147.4,121.6,146.4,120.5z"/>
		</g>
		<g>
			<path class="st73" d="M146.1,121.4c0,0,0.8,2.1,1,2.7c0.2,0.5,0.4,0.8,0.4,0.8l0.1,0c0,0-0.1-0.4-0.3-0.9
				C147.1,123.4,146.1,121.4,146.1,121.4z"/>
		</g>
		<g>
			<path class="st72" d="M147.9,119.2c-0.4,1.6,0,3.4-0.1,4.3c-0.1,0.9-0.2,1.4-0.2,1.4l-0.2,0c0,0-0.1-0.6,0-1.4
				C147.5,122.6,147.5,120.7,147.9,119.2z"/>
		</g>
		<g>
			<g>
				<path class="st74" d="M147.1,119.7c-0.4,0-0.6-0.1-0.7-0.4c0-0.2,0.2-0.5,0.5-0.5c0.3,0,0.6,0.2,0.8,0.3c0,0,0,0.1,0,0.1
					C147.6,119.3,147.4,119.6,147.1,119.7z"/>
			</g>
			<g>
				<path class="st74" d="M145.8,119.7c0.1-0.3,0.4-0.5,0.6-0.4s0.3,0.4,0.2,0.7c-0.1,0.3-0.5,0.4-0.6,0.5c0,0-0.1,0-0.1,0
					C145.8,120.4,145.6,120,145.8,119.7z"/>
			</g>
			<g>
				<path class="st74" d="M146.4,118.6c0.2,0.3,0.2,0.6,0,0.7s-0.5,0.1-0.7-0.2c-0.2-0.2-0.1-0.7-0.1-0.8c0,0,0,0,0.1,0
					C145.8,118.2,146.2,118.3,146.4,118.6z"/>
			</g>
			<g>
				<g>
					<path class="st75" d="M146.4,120.1c-0.2-0.3-0.2-0.6,0-0.7s0.5-0.1,0.7,0.2c0.2,0.2,0.1,0.7,0.1,0.8c0,0,0,0-0.1,0
						C147,120.4,146.6,120.3,146.4,120.1z"/>
				</g>
				<g>
					<path class="st75" d="M145.7,118.9c0.4,0,0.6,0.1,0.7,0.4c0,0.2-0.2,0.5-0.5,0.5c-0.3,0-0.6-0.2-0.8-0.3c0,0,0-0.1,0-0.1
						C145.2,119.3,145.4,119,145.7,118.9z"/>
				</g>
				<g>
					<path class="st75" d="M147,118.9c-0.1,0.3-0.4,0.5-0.6,0.4s-0.3-0.4-0.2-0.7c0.1-0.3,0.5-0.4,0.6-0.5c0,0,0.1,0,0.1,0
						C147,118.2,147.2,118.6,147,118.9z"/>
				</g>
			</g>
			<g>
				<g>
					<path class="st77" d="M146.8,119.4c0,0-0.1,0.1-0.1,0.1c0,0,0,0.1,0,0.1c0,0-0.1,0-0.1,0.1c0,0,0,0.1-0.1,0.1c0,0-0.1,0-0.1,0
						c0,0-0.1,0.1-0.1,0.1c0,0-0.1-0.1-0.1-0.1c0,0-0.1,0-0.1,0c0,0,0-0.1-0.1-0.1c0,0-0.1,0-0.1-0.1c0,0,0-0.1,0-0.1
						c0,0-0.1-0.1-0.1-0.1c0,0,0.1-0.1,0.1-0.1c0,0,0-0.1,0-0.1c0,0,0.1,0,0.1-0.1c0,0,0-0.1,0.1-0.1c0,0,0.1,0,0.1,0
						c0,0,0.1-0.1,0.1-0.1c0,0,0.1,0.1,0.1,0.1c0,0,0.1,0,0.1,0c0,0,0,0.1,0.1,0.1c0,0,0.1,0,0.1,0.1c0,0,0,0.1,0,0.1
						C146.7,119.3,146.8,119.3,146.8,119.4z"/>
				</g>
				<g>
					<path class="st78" d="M146.7,119.4c0,0.2-0.1,0.4-0.4,0.4c-0.2,0-0.4-0.1-0.4-0.4c0-0.2,0.1-0.4,0.4-0.4
						C146.5,119,146.6,119.2,146.7,119.4z"/>
				</g>
				<g>
					<path class="st76" d="M146.5,119.4c0,0.1-0.1,0.2-0.2,0.2s-0.2-0.1-0.2-0.2c0-0.1,0.1-0.2,0.2-0.2S146.5,119.2,146.5,119.4z"/>
				</g>
			</g>
		</g>
	</g>
	<g>
		<g>
			<path class="st64" d="M134,119.5c0,0.3,0,0.7,0.1,1c0,0.7,0.1,1.5,0.4,2.2c0.1,0.4,0.3,0.7,0.4,1.1c0.2,0.3,0.5,0.6,0.5,1
				c0-0.1,0.1-0.2,0.1-0.3c0-0.1,0-0.2,0.1-0.2c0.4-1.5-0.4-3.1-1.2-4.4C134.2,119.8,134,119.6,134,119.5z"/>
		</g>
		<g>
			<g>
				<g>
					<path class="st69" d="M134.1,118c0.2,0.6,0.6,0.5,0.9,0.4s0.6-0.3,0.4-0.9s-1.4-1.1-1.4-1.1S133.9,117.4,134.1,118z"/>
				</g>
				<g>
					<path class="st69" d="M135.5,117.7c0.1,0.6-0.3,0.7-0.7,0.8c-0.4,0-0.7,0-0.7-0.6c-0.1-0.6,0.8-1.6,0.8-1.6
						S135.4,117.1,135.5,117.7z"/>
				</g>
				<g>
					<path class="st66" d="M135.9,117.7c0.1,0.6-0.2,0.7-0.5,0.8c-0.3,0-0.5-0.1-0.5-0.6c-0.1-0.6,0.5-1.5,0.5-1.5
						S135.8,117.1,135.9,117.7z"/>
				</g>
				<g>
					<path class="st68" d="M133.9,118.1c0.2,0.6,0.5,0.5,0.8,0.5c0.2-0.1,0.4-0.3,0.2-0.8s-1.2-1.1-1.2-1.1S133.7,117.6,133.9,118.1
						z"/>
				</g>
				<g>
					<path class="st67" d="M134.2,117.9c0.1,0.6,0.4,0.6,0.8,0.5c0.4-0.1,0.6-0.2,0.5-0.8c-0.1-0.6-1-1.4-1-1.4
						S134.1,117.3,134.2,117.9z"/>
				</g>
			</g>
			<g>
				<path class="st63" d="M135.5,124.2c0.3-3.4-0.4-5.8-0.4-5.8l-0.2,0.1c0,0,0.6,2.4,0.3,5.8L135.5,124.2z"/>
			</g>
		</g>
		<g>
			<path class="st65" d="M136.9,119.5c0,0.3,0,0.7-0.1,1c0,0.7-0.2,1.5-0.4,2.2c-0.1,0.4-0.3,0.7-0.4,1.1c-0.2,0.3-0.5,0.6-0.5,1
				c0-0.1-0.1-0.2-0.1-0.3c0-0.1,0-0.2-0.1-0.2c-0.4-1.5,0.5-3.1,1.3-4.4C136.6,119.8,136.8,119.6,136.9,119.5z"/>
		</g>
	</g>
	<g>
		<g>
			<path class="st71" d="M137.9,124.9c0-4.8,0.2-6.8,0.2-6.8l0.2,0c0,0-0.2,2-0.2,6.8L137.9,124.9z"/>
		</g>
		<g>
			<g>
				<path class="st74" d="M138.7,117.2c0,0.4-0.2,0.6-0.5,0.6s-0.4-0.2-0.4-0.6c0-0.3,0.3-0.6,0.4-0.7c0,0,0.1,0,0.1,0
					C138.4,116.6,138.7,116.9,138.7,117.2z"/>
			</g>
			<g>
				<path class="st74" d="M138.5,118.5c-0.3-0.2-0.4-0.5-0.3-0.7s0.4-0.2,0.7-0.1c0.3,0.2,0.4,0.6,0.4,0.7c0,0,0,0.1,0,0.1
					C139.2,118.5,138.8,118.6,138.5,118.5z"/>
			</g>
			<g>
				<path class="st74" d="M137.5,117.7c0.3-0.2,0.6-0.1,0.7,0.1s0,0.5-0.3,0.7c-0.3,0.1-0.7,0-0.8,0c0,0,0,0,0-0.1
					C137.1,118.2,137.2,117.8,137.5,117.7z"/>
			</g>
			<g>
				<g>
					<path class="st75" d="M139,117.9c-0.3,0.2-0.6,0.1-0.7-0.1s0-0.5,0.3-0.7c0.3-0.1,0.7,0,0.8,0c0,0,0,0,0,0.1
						C139.4,117.3,139.3,117.7,139,117.9z"/>
				</g>
				<g>
					<path class="st75" d="M137.8,118.4c0-0.4,0.2-0.6,0.5-0.6s0.4,0.2,0.4,0.6c0,0.3-0.3,0.6-0.4,0.7c0,0-0.1,0-0.1,0
						C138.1,119,137.8,118.7,137.8,118.4z"/>
				</g>
				<g>
					<path class="st75" d="M138,117.1c0.3,0.2,0.4,0.5,0.3,0.7s-0.4,0.2-0.7,0.1c-0.3-0.2-0.4-0.6-0.4-0.7c0,0,0-0.1,0-0.1
						C137.3,117,137.7,116.9,138,117.1z"/>
				</g>
			</g>
			<g>
				<g>
					<polygon class="st78" points="138.8,117.8 138.4,118 138.1,117.6 138.5,117.3 					"/>
				</g>
				<g>
					<path class="st76" d="M138.5,117.8c0,0.1-0.1,0.3-0.2,0.3c-0.1,0-0.3-0.1-0.3-0.2c0-0.1,0.1-0.3,0.2-0.3
						C138.4,117.5,138.5,117.6,138.5,117.8z"/>
				</g>
				<g>
					<path class="st77" d="M139.1,117.5c0,0-0.1,0.1-0.1,0.1c0,0,0,0.1,0,0.1c0,0-0.1,0-0.1,0.1c0,0,0,0.1-0.1,0.1c0,0-0.1,0-0.1,0
						c0,0-0.1,0.1-0.1,0.1c0,0-0.1-0.1-0.1-0.1c0,0-0.1,0-0.1,0c0,0,0-0.1-0.1-0.1c0,0-0.1,0-0.1-0.1c0,0,0-0.1,0-0.1
						c0,0-0.1-0.1-0.1-0.1c0,0,0.1-0.1,0.1-0.1c0,0,0-0.1,0-0.1c0,0,0.1,0,0.1-0.1c0,0,0-0.1,0.1-0.1c0,0,0.1,0,0.1,0
						c0,0,0.1-0.1,0.1-0.1c0,0,0.1,0.1,0.1,0.1c0,0,0.1,0,0.1,0c0,0,0,0.1,0.1,0.1c0,0,0.1,0,0.1,0.1c0,0,0,0.1,0,0.1
						C139.1,117.4,139.1,117.5,139.1,117.5z"/>
				</g>
				<g>
					<path class="st78" d="M139,117.5c0,0.2-0.2,0.4-0.4,0.4c-0.2,0-0.4-0.2-0.4-0.4c0-0.2,0.2-0.4,0.4-0.4S139,117.3,139,117.5z"/>
				</g>
				<g>
					<circle class="st76" cx="138.6" cy="117.5" r="0.2"/>
				</g>
			</g>
		</g>
		<g>
			<path class="st73" d="M137,117.9c0.6,3.1,0.4,4.1,0.5,5.1s0.4,1.5,0.4,1.5l0.2,0c0,0,0-0.6-0.2-1.6
				C137.8,122,138,120.9,137,117.9z"/>
		</g>
		<g>
			<path class="st72" d="M139.5,117.8c-0.8,2-0.6,4.3-0.9,5.4c-0.2,1.1-0.5,1.8-0.5,1.8l-0.2,0c0,0,0-0.8,0.2-1.9
				C138.4,122,138.6,119.6,139.5,117.8z"/>
		</g>
	</g>
	<g>
		<g>
			<path class="st71" d="M133.2,124.8c-0.8-4.9-1-5.4-1-5.4l0.1-0.1c0,0,0.3,0.5,1,5.5L133.2,124.8z"/>
		</g>
		<g>
			<path class="st72" d="M132.1,120.5c0.7,1.2,0.4,2.2,0.7,3.3c0.2,0.9,0.3,1.1,0.3,1.1l0.2,0c0,0-0.2-0.2-0.3-1.1
				C132.9,122.8,133,121.6,132.1,120.5z"/>
		</g>
		<g>
			<path class="st73" d="M131.7,121.4c0,0,0.8,2.1,1,2.7c0.2,0.5,0.4,0.8,0.4,0.8l0.1,0c0,0-0.1-0.4-0.3-0.9
				C132.7,123.4,131.7,121.4,131.7,121.4z"/>
		</g>
		<g>
			<path class="st72" d="M133.6,119.2c-0.4,1.6,0,3.4-0.1,4.3s-0.2,1.4-0.2,1.4l-0.2,0c0,0-0.1-0.6,0-1.4
				C133.2,122.6,133.1,120.7,133.6,119.2z"/>
		</g>
		<g>
			<g>
				<path class="st74" d="M132.7,119.7c-0.4,0-0.6-0.1-0.7-0.4c0-0.2,0.2-0.5,0.5-0.5c0.3,0,0.6,0.2,0.8,0.3c0,0,0,0.1,0,0.1
					C133.3,119.3,133,119.6,132.7,119.7z"/>
			</g>
			<g>
				<path class="st74" d="M131.4,119.7c0.1-0.3,0.4-0.5,0.6-0.4s0.3,0.4,0.2,0.7c-0.1,0.3-0.5,0.4-0.6,0.5c0,0-0.1,0-0.1,0
					C131.5,120.4,131.3,120,131.4,119.7z"/>
			</g>
			<g>
				<path class="st74" d="M132.1,118.6c0.2,0.3,0.2,0.6,0,0.7s-0.5,0.1-0.7-0.2c-0.2-0.2-0.1-0.7-0.1-0.8c0,0,0,0,0.1,0
					C131.5,118.2,131.9,118.3,132.1,118.6z"/>
			</g>
			<g>
				<g>
					<path class="st75" d="M132.1,120.1c-0.2-0.3-0.2-0.6,0-0.7s0.5-0.1,0.7,0.2c0.2,0.2,0.1,0.7,0.1,0.8c0,0,0,0-0.1,0
						C132.7,120.4,132.3,120.3,132.1,120.1z"/>
				</g>
				<g>
					<path class="st75" d="M131.4,118.9c0.4,0,0.6,0.1,0.7,0.4c0,0.2-0.2,0.5-0.5,0.5c-0.3,0-0.6-0.2-0.8-0.3c0,0,0-0.1,0-0.1
						C130.8,119.3,131.1,119,131.4,118.9z"/>
				</g>
				<g>
					<path class="st75" d="M132.7,118.9c-0.1,0.3-0.4,0.5-0.6,0.4s-0.3-0.4-0.2-0.7c0.1-0.3,0.5-0.4,0.6-0.5c0,0,0.1,0,0.1,0
						C132.7,118.2,132.8,118.6,132.7,118.9z"/>
				</g>
			</g>
			<g>
				<g>
					<path class="st77" d="M132.5,119.4c0,0-0.1,0.1-0.1,0.1c0,0,0,0.1,0,0.1c0,0-0.1,0-0.1,0.1c0,0,0,0.1-0.1,0.1c0,0-0.1,0-0.1,0
						c0,0-0.1,0.1-0.1,0.1c0,0-0.1-0.1-0.1-0.1c0,0-0.1,0-0.1,0c0,0,0-0.1-0.1-0.1c0,0-0.1,0-0.1-0.1c0,0,0-0.1,0-0.1
						c0,0-0.1-0.1-0.1-0.1c0,0,0.1-0.1,0.1-0.1c0,0,0-0.1,0-0.1c0,0,0.1,0,0.1-0.1c0,0,0-0.1,0.1-0.1c0,0,0.1,0,0.1,0
						c0,0,0.1-0.1,0.1-0.1c0,0,0.1,0.1,0.1,0.1c0,0,0.1,0,0.1,0c0,0,0,0.1,0.1,0.1c0,0,0.1,0,0.1,0.1c0,0,0,0.1,0,0.1
						C132.4,119.3,132.5,119.3,132.5,119.4z"/>
				</g>
				<g>
					<path class="st78" d="M132.3,119.4c0,0.2-0.1,0.4-0.4,0.4c-0.2,0-0.4-0.1-0.4-0.4c0-0.2,0.1-0.4,0.4-0.4
						C132.1,119,132.3,119.2,132.3,119.4z"/>
				</g>
				<g>
					<path class="st76" d="M132.2,119.4c0,0.1-0.1,0.2-0.2,0.2s-0.2-0.1-0.2-0.2c0-0.1,0.1-0.2,0.2-0.2
						C132.1,119.1,132.2,119.2,132.2,119.4z"/>
				</g>
			</g>
		</g>
	</g>
	<path class="st47" d="M62.2,50.6c0.9,0,1.7,0.4,2.2,1.1c0.2-2,1.8-3.5,3.8-3.5c1.3,0,2.4,0.6,3.1,1.6c0.7-2.5,3-4.3,5.7-4.3
		c2.5,0,4.6,1.5,5.4,3.7c0.7-0.6,1.5-0.9,2.5-0.9c1.9,0,3.5,1.4,3.8,3.2c0.5-0.5,1.2-0.8,2-0.8c0.8,0,1.6,0.4,2.1,1
		c0.6-1.2,1.9-2.1,3.4-2.1c2.1,0,3.9,1.7,3.9,3.9H59.5C59.5,51.8,60.7,50.6,62.2,50.6z"/>
	<path class="st47" d="M103.8,40.3c0.9,0,1.7,0.4,2.2,1.1c0.2-2,1.8-3.5,3.8-3.5c1.3,0,2.4,0.6,3.1,1.6c0.7-2.5,3-4.3,5.7-4.3
		c2.5,0,4.6,1.5,5.4,3.7c0.7-0.6,1.5-0.9,2.5-0.9c1.9,0,3.5,1.4,3.8,3.2c0.5-0.5,1.2-0.8,2-0.8c0.8,0,1.6,0.4,2.1,1
		c0.6-1.2,1.9-2.1,3.4-2.1c2.1,0,3.9,1.7,3.9,3.9h-40.6C101.1,41.5,102.3,40.3,103.8,40.3z"/>
	<g>
		<g>
			<path class="st43" d="M51.6,152.2c-0.6,0-1-0.4-1-1v-30.8c0-0.6,0.4-1,1-1s1,0.4,1,1v30.8C52.6,151.8,52.2,152.2,51.6,152.2z"/>
		</g>
		<g>
			<path class="st43" d="M52,120.6c0,0,0-0.1,0-0.1c0-0.6-0.9-0.6-1-0.1c0,0,0,0,0,0c0,0,0,0,0,0.1c0,4.3-2.3,7.9-5.9,10.1
				c-0.6,0.3-0.1,1.1,0.5,0.9c1.1-0.5,2.3-1,3.4-1.5c-0.4,2.1-2.3,5-4.3,6c-0.2,0.1-0.5,0.2-0.7,0.3c-0.6,0.2-0.4,1.1,0.3,1
				c0.3-0.1,0.7-0.2,1-0.4c1.3-0.6,2.6-1.2,3.8-2.1c-1.2,3.2-3.6,5.5-6.3,7.6c-0.4,0.3-0.3,0.9,0.3,0.9c1.5,0,2.6-1.2,3.7-2.1
				c1.6-1.2,3.1-2.4,4.9-3.4c0.3,0,0.7-0.2,0.6-0.6c-0.2-1.1,0.1-2.5,0.1-3.7c0-1.4,0.1-2.8,0.1-4.2C52.4,126.4,52.3,123.5,52,120.6
				z"/>
		</g>
		<g>
			<path class="st43" d="M51.2,129.3c0,1.4,0.1,2.8,0.1,4.2c0,1.2,0.4,2.6,0.1,3.7c-0.1,0.4,0.3,0.7,0.6,0.6c1.7,1,3.3,2.1,4.9,3.4
				c1.1,0.8,2.2,2.1,3.7,2.1c0.5,0,0.6-0.7,0.3-0.9c-2.7-2.1-5.1-4.4-6.3-7.6c1.2,0.8,2.4,1.5,3.8,2.1c0.3,0.2,0.7,0.3,1,0.4
				c0.6,0.2,0.9-0.8,0.3-1c-0.3-0.1-0.5-0.2-0.7-0.3c-2-1-4-3.9-4.3-6c1.1,0.5,2.3,1,3.4,1.5c0.6,0.2,1.1-0.5,0.5-0.9
				c-3.6-2.2-5.9-5.8-5.9-10.1c0,0,0,0,0-0.1c0,0,0,0,0,0c-0.1-0.5-1-0.5-1,0.1c0,0,0,0.1,0,0.1C51.3,123.5,51.1,126.4,51.2,129.3z"
				/>
		</g>
	</g>
	<g>
		<g>
			<path class="st43" d="M66,135.7c-0.6,0-1-0.4-1-1v-21.8c0-0.6,0.4-1,1-1s1,0.4,1,1v21.8C67,135.2,66.6,135.7,66,135.7z"/>
		</g>
		<g>
			<path class="st43" d="M66.3,113c0,0,0-0.1,0-0.1c0-0.4-0.6-0.4-0.7-0.1c0,0,0,0,0,0c0,0,0,0,0,0c0,3-1.6,5.6-4.2,7.1
				c-0.4,0.2-0.1,0.8,0.4,0.6c0.8-0.3,1.6-0.7,2.4-1c-0.3,1.5-1.6,3.5-3.1,4.3c-0.2,0.1-0.3,0.1-0.5,0.2c-0.4,0.2-0.3,0.8,0.2,0.7
				c0.2-0.1,0.5-0.2,0.7-0.3c0.9-0.4,1.8-0.9,2.7-1.5c-0.8,2.2-2.5,3.9-4.4,5.3c-0.3,0.2-0.2,0.7,0.2,0.7c1,0,1.8-0.9,2.6-1.5
				c1.1-0.9,2.2-1.7,3.5-2.4c0.2,0,0.5-0.2,0.4-0.4c-0.2-0.8,0.1-1.8,0.1-2.6c0-1,0.1-2,0.1-3C66.6,117.1,66.5,115,66.3,113z"/>
		</g>
		<g>
			<path class="st43" d="M65.7,119.1c0,1,0.1,2,0.1,3c0,0.8,0.3,1.8,0.1,2.6c-0.1,0.3,0.2,0.5,0.4,0.4c1.2,0.7,2.3,1.5,3.5,2.4
				c0.8,0.6,1.6,1.5,2.6,1.5c0.4,0,0.4-0.5,0.2-0.7c-1.9-1.4-3.6-3.1-4.4-5.3c0.8,0.6,1.7,1.1,2.7,1.5c0.2,0.1,0.5,0.2,0.7,0.3
				c0.4,0.1,0.6-0.5,0.2-0.7c-0.2-0.1-0.4-0.1-0.5-0.2c-1.4-0.7-2.8-2.8-3.1-4.3c0.8,0.3,1.6,0.7,2.4,1c0.4,0.2,0.8-0.4,0.4-0.6
				c-2.6-1.6-4.2-4.1-4.2-7.1c0,0,0,0,0,0c0,0,0,0,0,0c-0.1-0.4-0.7-0.4-0.7,0.1c0,0,0,0.1,0,0.1C65.8,115,65.7,117.1,65.7,119.1z"
				/>
		</g>
	</g>
</g>
</svg>
