<svg id="Layer_1" data-name="Layer 1" xmlns="http://www.w3.org/2000/svg" viewBox="0 0 1292.68 396.84"><defs><style>.cls-1{font-size:231.64px;font-family:ITCAvantGardeStd-Md, ITC Avant Garde Gothic Std;}.cls-1,.cls-3{fill:#1ba9e3;}.cls-2{fill:#7854fc;}</style></defs><title>ZIOgRPC 2</title><text class="cls-1" transform="translate(229.23 283.32)">ZIO <tspan class="cls-2" x="441.5" y="0">gRPC</tspan></text><path class="cls-2" d="M658.49,826.26c22.48-11.16,43.48-25,65.58-36.85,5.95,1.11,10.89,5,16.14,7.81,17,9.94,34.28,19.44,51.14,29.65-.31,25.68.07,51.36-.13,77-7.86-2.92-14.74-7.74-21.83-12.12-37.58-21.45-75-43.28-112.56-64.71Z" transform="translate(-656.32 -507.08)"/><path class="cls-3" d="M677.57,738.37c38-21.85,76.2-43.53,113.83-66.06q-.2,39.47,0,78.94c-22.48,12.6-44.71,25.74-67.3,38.16C702,801.26,681,815.1,658.49,826.26c-1-22.86-.23-45.8-.48-68.68C656.37,746.06,670,743.18,677.57,738.37Z" transform="translate(-656.32 -507.08)"/><path class="cls-2" d="M789.23,661c-22.48-11.16-43.48-25-65.58-36.85-5.95,1.11-10.89,5-16.13,7.82-17,9.93-34.28,19.43-51.15,29.64.31,25.68-.07,51.37.13,77.05,7.86-2.92,14.75-7.74,21.83-12.12,37.58-21.45,75-43.28,112.56-64.7Z" transform="translate(-656.32 -507.08)"/><path class="cls-3" d="M770.15,573.14c-38-21.85-76.19-43.53-113.83-66.06q.2,39.48,0,78.94c22.48,12.61,44.71,25.74,67.3,38.16,22.1,11.85,43.1,25.69,65.58,36.85,1-22.86.23-45.79.48-68.68C791.35,580.83,777.74,578,770.15,573.14Z" transform="translate(-656.32 -507.08)"/></svg>